<?xml version="1.0" encoding="UTF-8" standalone="no"?><svg xmlns="http://www.w3.org/2000/svg" xmlns:xlink="http://www.w3.org/1999/xlink" contentScriptType="application/ecmascript" contentStyleType="text/css" height="1546.5px" preserveAspectRatio="none" style="width:1992px;height:1546px;" version="1.1" viewBox="0 0 1992 1546" width="1992px" zoomAndPan="magnify"><defs><filter height="300%" id="f1u39jub7gcyaz" width="300%" x="-1" y="-1"><feGaussianBlur result="blurOut" stdDeviation="3.0"/><feColorMatrix in="blurOut" result="blurOut2" type="matrix" values="0 0 0 0 0 0 0 0 0 0 0 0 0 0 0 0 0 0 .4 0"/><feOffset dx="6.0" dy="6.0" in="blurOut2" result="blurOut3"/><feBlend in="SourceGraphic" in2="blurOut3" mode="normal"/></filter></defs><g><rect fill="#FFFFFF" filter="url(#f1u39jub7gcyaz)" height="1326.6445" style="stroke:#383838;stroke-width:1.5;" width="15" x="274.5" y="182.9414"/><rect fill="#FFFFFF" filter="url(#f1u39jub7gcyaz)" height="45.5273" style="stroke:#383838;stroke-width:1.5;" width="15" x="561" y="756.9023"/><rect fill="#FFFFFF" filter="url(#f1u39jub7gcyaz)" height="45.5273" style="stroke:#383838;stroke-width:1.5;" width="15" x="561" y="1281.9492"/><rect fill="#FFFFFF" filter="url(#f1u39jub7gcyaz)" height="45.5273" style="stroke:#383838;stroke-width:1.5;" width="15" x="561" y="1464.0586"/><rect fill="#FFFFFF" filter="url(#f1u39jub7gcyaz)" height="504.0469" style="stroke:#383838;stroke-width:1.5;" width="15" x="771" y="298.3828"/><rect fill="#FFFFFF" filter="url(#f1u39jub7gcyaz)" height="1059.6211" style="stroke:#383838;stroke-width:1.5;" width="15" x="1094.25" y="358.9102"/><rect fill="#FFFFFF" filter="url(#f1u39jub7gcyaz)" height="559.6875" style="stroke:#383838;stroke-width:1.5;" width="15" x="1391.25" y="963.3984"/><rect fill="#FFFFFF" filter="url(#f1u39jub7gcyaz)" height="136.582" style="stroke:#383838;stroke-width:1.5;" width="15" x="1590.75" y="483.7383"/><rect fill="#FFFFFF" filter="url(#f1u39jub7gcyaz)" height="364.0781" style="stroke:#383838;stroke-width:1.5;" width="15" x="1590.75" y="1008.9258"/><rect fill="#FFFFFF" filter="url(#f1u39jub7gcyaz)" height="45.5273" style="stroke:#383838;stroke-width:1.5;" width="15" x="1746.75" y="1054.4531"/><rect fill="#FFFFFF" filter="url(#f1u39jub7gcyaz)" height="21" style="stroke:#383838;stroke-width:1.5;" width="15" x="1917.75" y="1215.4219"/><line style="stroke:#383838;stroke-width:1.5;stroke-dasharray:5.0,5.0;" x1="54" x2="54" y1="134.4141" y2="1536.5859"/><line style="stroke:#383838;stroke-width:1.5;stroke-dasharray:5.0,5.0;" x1="281.25" x2="281.25" y1="134.4141" y2="1536.5859"/><line style="stroke:#383838;stroke-width:1.5;stroke-dasharray:5.0,5.0;" x1="567.75" x2="567.75" y1="134.4141" y2="1536.5859"/><line style="stroke:#383838;stroke-width:1.5;stroke-dasharray:5.0,5.0;" x1="777.75" x2="777.75" y1="244.8984" y2="1536.5859"/><line style="stroke:#383838;stroke-width:1.5;stroke-dasharray:5.0,5.0;" x1="1101" x2="1101" y1="360.3398" y2="1536.5859"/><line style="stroke:#383838;stroke-width:1.5;stroke-dasharray:5.0,5.0;" x1="1398" x2="1398" y1="909.9141" y2="1536.5859"/><line style="stroke:#383838;stroke-width:1.5;stroke-dasharray:5.0,5.0;" x1="1597.5" x2="1597.5" y1="430.2539" y2="1536.5859"/><line style="stroke:#383838;stroke-width:1.5;stroke-dasharray:5.0,5.0;" x1="1753.5" x2="1753.5" y1="134.4141" y2="1536.5859"/><line style="stroke:#383838;stroke-width:1.5;stroke-dasharray:5.0,5.0;" x1="1925.25" x2="1925.25" y1="1161.9375" y2="1536.5859"/><text fill="#000000" font-family="sans-serif" font-size="21" lengthAdjust="spacingAndGlyphs" textLength="84" x="7.5" y="129.7998">Benutzer</text><ellipse cx="54" cy="22.5" fill="#F8F8F8" filter="url(#f1u39jub7gcyaz)" rx="12" ry="12" style="stroke:#383838;stroke-width:3.0;"/><path d="M54,34.5 L54,75 M34.5,46.5 L73.5,46.5 M54,75 L34.5,97.5 M54,75 L73.5,97.5 " fill="none" filter="url(#f1u39jub7gcyaz)" style="stroke:#383838;stroke-width:3.0;"/><rect fill="#F8F8F8" filter="url(#f1u39jub7gcyaz)" height="47.4141" style="stroke:#383838;stroke-width:2.25;" width="190.5" x="183.75" y="79.5"/><text fill="#000000" font-family="sans-serif" font-size="21" lengthAdjust="spacingAndGlyphs" textLength="169.5" x="194.25" y="111.7998">main:MainWindow</text><rect fill="#F8F8F8" filter="url(#f1u39jub7gcyaz)" height="47.4141" style="stroke:#383838;stroke-width:2.25;" width="130.5" x="500.25" y="79.5"/><text fill="#000000" font-family="sans-serif" font-size="21" lengthAdjust="spacingAndGlyphs" textLength="109.5" x="510.75" y="111.7998">c:Controller</text><rect fill="#F8F8F8" filter="url(#f1u39jub7gcyaz)" height="47.4141" style="stroke:#383838;stroke-width:2.25;" width="190.5" x="1656" y="79.5"/><text fill="#000000" font-family="sans-serif" font-size="21" lengthAdjust="spacingAndGlyphs" textLength="169.5" x="1666.5" y="111.7998">commit:GitCommit</text><rect fill="#FFFFFF" filter="url(#f1u39jub7gcyaz)" height="1326.6445" style="stroke:#383838;stroke-width:1.5;" width="15" x="274.5" y="182.9414"/><rect fill="#FFFFFF" filter="url(#f1u39jub7gcyaz)" height="45.5273" style="stroke:#383838;stroke-width:1.5;" width="15" x="561" y="756.9023"/><rect fill="#FFFFFF" filter="url(#f1u39jub7gcyaz)" height="45.5273" style="stroke:#383838;stroke-width:1.5;" width="15" x="561" y="1281.9492"/><rect fill="#FFFFFF" filter="url(#f1u39jub7gcyaz)" height="45.5273" style="stroke:#383838;stroke-width:1.5;" width="15" x="561" y="1464.0586"/><rect fill="#FFFFFF" filter="url(#f1u39jub7gcyaz)" height="504.0469" style="stroke:#383838;stroke-width:1.5;" width="15" x="771" y="298.3828"/><rect fill="#FFFFFF" filter="url(#f1u39jub7gcyaz)" height="1059.6211" style="stroke:#383838;stroke-width:1.5;" width="15" x="1094.25" y="358.9102"/><rect fill="#FFFFFF" filter="url(#f1u39jub7gcyaz)" height="559.6875" style="stroke:#383838;stroke-width:1.5;" width="15" x="1391.25" y="963.3984"/><rect fill="#FFFFFF" filter="url(#f1u39jub7gcyaz)" height="136.582" style="stroke:#383838;stroke-width:1.5;" width="15" x="1590.75" y="483.7383"/><rect fill="#FFFFFF" filter="url(#f1u39jub7gcyaz)" height="364.0781" style="stroke:#383838;stroke-width:1.5;" width="15" x="1590.75" y="1008.9258"/><rect fill="#FFFFFF" filter="url(#f1u39jub7gcyaz)" height="45.5273" style="stroke:#383838;stroke-width:1.5;" width="15" x="1746.75" y="1054.4531"/><rect fill="#FFFFFF" filter="url(#f1u39jub7gcyaz)" height="21" style="stroke:#383838;stroke-width:1.5;" width="15" x="1917.75" y="1215.4219"/><polygon fill="#383838" points="256.5,176.9414,271.5,182.9414,256.5,188.9414,262.5,182.9414" style="stroke:#383838;stroke-width:1.5;"/><line style="stroke:#383838;stroke-width:1.5;" x1="54" x2="265.5" y1="182.9414" y2="182.9414"/><text fill="#000000" font-family="sans-serif" font-size="19.5" lengthAdjust="spacingAndGlyphs" textLength="192" x="64.5" y="175.6567">Drücken auf Checkout</text><polygon fill="#383838" points="665.25,222.4688,680.25,228.4688,665.25,234.4688,671.25,228.4688" style="stroke:#383838;stroke-width:1.5;"/><line style="stroke:#383838;stroke-width:1.5;stroke-dasharray:2.0,2.0;" x1="289.5" x2="674.25" y1="228.4688" y2="228.4688"/><text fill="#000000" font-family="sans-serif" font-size="19.5" lengthAdjust="spacingAndGlyphs" textLength="102" x="300" y="221.1841">&lt;&lt;create&gt;&gt;</text><rect fill="#F8F8F8" filter="url(#f1u39jub7gcyaz)" height="47.4141" style="stroke:#383838;stroke-width:2.25;" width="184.5" x="683.25" y="194.9414"/><text fill="#000000" font-family="sans-serif" font-size="21" lengthAdjust="spacingAndGlyphs" textLength="163.5" x="693.75" y="227.2412">dummy:Checkout</text><polygon fill="#383838" points="753,292.3828,768,298.3828,753,304.3828,759,298.3828" style="stroke:#383838;stroke-width:1.5;"/><line style="stroke:#383838;stroke-width:1.5;" x1="289.5" x2="762" y1="298.3828" y2="298.3828"/><text fill="#000000" font-family="sans-serif" font-size="19.5" lengthAdjust="spacingAndGlyphs" textLength="154.5" x="300" y="291.0981">onButtonClicked()</text><polygon fill="#383838" points="906,337.9102,921,343.9102,906,349.9102,912,343.9102" style="stroke:#383838;stroke-width:1.5;"/><line style="stroke:#383838;stroke-width:1.5;stroke-dasharray:2.0,2.0;" x1="786" x2="915" y1="343.9102" y2="343.9102"/><text fill="#000000" font-family="sans-serif" font-size="19.5" lengthAdjust="spacingAndGlyphs" textLength="102" x="796.5" y="336.6255">&lt;&lt;create&gt;&gt;</text><rect fill="#F8F8F8" filter="url(#f1u39jub7gcyaz)" height="47.4141" style="stroke:#383838;stroke-width:2.25;" width="349.5" x="924" y="310.3828"/><text fill="#000000" font-family="sans-serif" font-size="21" lengthAdjust="spacingAndGlyphs" textLength="328.5" x="934.5" y="342.6826">checkoutView:CheckoutDialogView</text><polygon fill="#383838" points="1539,407.8242,1554,413.8242,1539,419.8242,1545,413.8242" style="stroke:#383838;stroke-width:1.5;"/><line style="stroke:#383838;stroke-width:1.5;stroke-dasharray:2.0,2.0;" x1="1109.25" x2="1548" y1="413.8242" y2="413.8242"/><text fill="#000000" font-family="sans-serif" font-size="19.5" lengthAdjust="spacingAndGlyphs" textLength="102" x="1119.75" y="406.5396">&lt;&lt;create&gt;&gt;</text><rect fill="#F8F8F8" filter="url(#f1u39jub7gcyaz)" height="47.4141" style="stroke:#383838;stroke-width:2.25;" width="76.5" x="1557" y="380.2969"/><text fill="#000000" font-family="sans-serif" font-size="21" lengthAdjust="spacingAndGlyphs" textLength="55.5" x="1567.5" y="412.5967">git:Git</text><polygon fill="#383838" points="1572.75,477.7383,1587.75,483.7383,1572.75,489.7383,1578.75,483.7383" style="stroke:#383838;stroke-width:1.5;"/><line style="stroke:#383838;stroke-width:1.5;" x1="1109.25" x2="1581.75" y1="483.7383" y2="483.7383"/><text fill="#000000" font-family="sans-serif" font-size="19.5" lengthAdjust="spacingAndGlyphs" textLength="121.5" x="1119.75" y="476.4536">getBranches()</text><polygon fill="#383838" points="1125.75,523.2656,1110.75,529.2656,1125.75,535.2656,1119.75,529.2656" style="stroke:#383838;stroke-width:1.5;"/><line style="stroke:#383838;stroke-width:1.5;stroke-dasharray:2.0,2.0;" x1="1116.75" x2="1589.25" y1="529.2656" y2="529.2656"/><text fill="#000000" font-family="sans-serif" font-size="19.5" lengthAdjust="spacingAndGlyphs" textLength="142.5" x="1134.75" y="521.981">List&lt;GitBranch&gt;</text><polygon fill="#383838" points="1572.75,568.793,1587.75,574.793,1572.75,580.793,1578.75,574.793" style="stroke:#383838;stroke-width:1.5;"/><line style="stroke:#383838;stroke-width:1.5;" x1="1109.25" x2="1581.75" y1="574.793" y2="574.793"/><text fill="#000000" font-family="sans-serif" font-size="19.5" lengthAdjust="spacingAndGlyphs" textLength="117" x="1119.75" y="567.5083">getCommits()</text><polygon fill="#383838" points="1125.75,614.3203,1110.75,620.3203,1125.75,626.3203,1119.75,620.3203" style="stroke:#383838;stroke-width:1.5;"/><line style="stroke:#383838;stroke-width:1.5;stroke-dasharray:2.0,2.0;" x1="1116.75" x2="1596.75" y1="620.3203" y2="620.3203"/><text fill="#000000" font-family="sans-serif" font-size="19.5" lengthAdjust="spacingAndGlyphs" textLength="148.5" x="1134.75" y="613.0356">List&lt;GitCommit&gt;</text><polygon fill="#383838" points="1076.25,659.8477,1091.25,665.8477,1076.25,671.8477,1082.25,665.8477" style="stroke:#383838;stroke-width:1.5;"/><line style="stroke:#383838;stroke-width:1.5;" x1="786" x2="1085.25" y1="665.8477" y2="665.8477"/><text fill="#000000" font-family="sans-serif" font-size="19.5" lengthAdjust="spacingAndGlyphs" textLength="81" x="796.5" y="658.563">getView()</text><polygon fill="#383838" points="802.5,705.375,787.5,711.375,802.5,717.375,796.5,711.375" style="stroke:#383838;stroke-width:1.5;"/><line style="stroke:#383838;stroke-width:1.5;stroke-dasharray:2.0,2.0;" x1="793.5" x2="1092.75" y1="711.375" y2="711.375"/><text fill="#000000" font-family="sans-serif" font-size="19.5" lengthAdjust="spacingAndGlyphs" textLength="100.5" x="811.5" y="704.0903">view:JPanel</text><polygon fill="#383838" points="592.5,750.9023,577.5,756.9023,592.5,762.9023,586.5,756.9023" style="stroke:#383838;stroke-width:1.5;"/><line style="stroke:#383838;stroke-width:1.5;" x1="583.5" x2="769.5" y1="756.9023" y2="756.9023"/><text fill="#000000" font-family="sans-serif" font-size="19.5" lengthAdjust="spacingAndGlyphs" textLength="132" x="601.5" y="749.6177">openView(view)</text><polygon fill="#383838" points="306,796.4297,291,802.4297,306,808.4297,300,802.4297" style="stroke:#383838;stroke-width:1.5;"/><line style="stroke:#383838;stroke-width:1.5;" x1="297" x2="567" y1="802.4297" y2="802.4297"/><text fill="#000000" font-family="sans-serif" font-size="19.5" lengthAdjust="spacingAndGlyphs" textLength="117" x="315" y="795.145">setView(view)</text><polygon fill="#383838" points="1076.25,841.957,1091.25,847.957,1076.25,853.957,1082.25,847.957" style="stroke:#383838;stroke-width:1.5;"/><line style="stroke:#383838;stroke-width:1.5;" x1="54" x2="1085.25" y1="847.957" y2="847.957"/><text fill="#000000" font-family="sans-serif" font-size="19.5" lengthAdjust="spacingAndGlyphs" textLength="147" x="64.5" y="840.6724">Nutzerintaraktion</text><polygon fill="#383838" points="1276.5,887.4844,1291.5,893.4844,1276.5,899.4844,1282.5,893.4844" style="stroke:#383838;stroke-width:1.5;"/><line style="stroke:#383838;stroke-width:1.5;stroke-dasharray:2.0,2.0;" x1="1109.25" x2="1285.5" y1="893.4844" y2="893.4844"/><text fill="#000000" font-family="sans-serif" font-size="19.5" lengthAdjust="spacingAndGlyphs" textLength="102" x="1119.75" y="886.1997">&lt;&lt;create&gt;&gt;</text><rect fill="#F8F8F8" filter="url(#f1u39jub7gcyaz)" height="47.4141" style="stroke:#383838;stroke-width:2.25;" width="202.5" x="1294.5" y="859.957"/><text fill="#000000" font-family="sans-serif" font-size="21" lengthAdjust="spacingAndGlyphs" textLength="181.5" x="1305" y="892.2568">checkout:Checkout</text><polygon fill="#383838" points="1373.25,957.3984,1388.25,963.3984,1373.25,969.3984,1379.25,963.3984" style="stroke:#383838;stroke-width:1.5;"/><line style="stroke:#383838;stroke-width:1.5;" x1="1109.25" x2="1382.25" y1="963.3984" y2="963.3984"/><text fill="#000000" font-family="sans-serif" font-size="19.5" lengthAdjust="spacingAndGlyphs" textLength="162" x="1119.75" y="956.1138">checkout (commit)</text><polygon fill="#383838" points="1572.75,1002.9258,1587.75,1008.9258,1572.75,1014.9258,1578.75,1008.9258" style="stroke:#383838;stroke-width:1.5;"/><line style="stroke:#383838;stroke-width:1.5;" x1="1406.25" x2="1581.75" y1="1008.9258" y2="1008.9258"/><text fill="#000000" font-family="sans-serif" font-size="19.5" lengthAdjust="spacingAndGlyphs" textLength="156" x="1416.75" y="1001.6411">checkout(commit)</text><polygon fill="#383838" points="1728.75,1048.4531,1743.75,1054.4531,1728.75,1060.4531,1734.75,1054.4531" style="stroke:#383838;stroke-width:1.5;"/><line style="stroke:#383838;stroke-width:1.5;" x1="1605.75" x2="1737.75" y1="1054.4531" y2="1054.4531"/><text fill="#000000" font-family="sans-serif" font-size="19.5" lengthAdjust="spacingAndGlyphs" textLength="84" x="1616.25" y="1047.1685">getHash()</text><polygon fill="#383838" points="1622.25,1093.9805,1607.25,1099.9805,1622.25,1105.9805,1616.25,1099.9805" style="stroke:#383838;stroke-width:1.5;"/><line style="stroke:#383838;stroke-width:1.5;stroke-dasharray:2.0,2.0;" x1="1613.25" x2="1752.75" y1="1099.9805" y2="1099.9805"/><text fill="#000000" font-family="sans-serif" font-size="19.5" lengthAdjust="spacingAndGlyphs" textLength="105" x="1631.25" y="1092.6958">name:String</text><polygon fill="#383838" points="1854.75,1139.5078,1869.75,1145.5078,1854.75,1151.5078,1860.75,1145.5078" style="stroke:#383838;stroke-width:1.5;"/><line style="stroke:#383838;stroke-width:1.5;stroke-dasharray:2.0,2.0;" x1="1605.75" x2="1863.75" y1="1145.5078" y2="1145.5078"/><text fill="#000000" font-family="sans-serif" font-size="19.5" lengthAdjust="spacingAndGlyphs" textLength="102" x="1616.25" y="1138.2231">&lt;&lt;create&gt;&gt;</text><rect fill="#F8F8F8" filter="url(#f1u39jub7gcyaz)" height="47.4141" style="stroke:#383838;stroke-width:2.25;" width="99" x="1872.75" y="1111.9805"/><text fill="#000000" font-family="sans-serif" font-size="21" lengthAdjust="spacingAndGlyphs" textLength="78" x="1883.25" y="1144.2803">JGit:JGit</text><polygon fill="#383838" points="1899.75,1209.4219,1914.75,1215.4219,1899.75,1221.4219,1905.75,1215.4219" style="stroke:#383838;stroke-width:1.5;"/><line style="stroke:#383838;stroke-width:1.5;" x1="1605.75" x2="1908.75" y1="1215.4219" y2="1215.4219"/><text fill="#000000" font-family="sans-serif" font-size="19.5" lengthAdjust="spacingAndGlyphs" textLength="283.5" x="1616.25" y="1208.1372">checkout().setName(name).call()</text><polygon fill="#383838" points="1622.25,1230.4219,1607.25,1236.4219,1622.25,1242.4219,1616.25,1236.4219" style="stroke:#383838;stroke-width:1.5;"/><line style="stroke:#383838;stroke-width:1.5;stroke-dasharray:2.0,2.0;" x1="1613.25" x2="1923.75" y1="1236.4219" y2="1236.4219"/><polygon fill="#383838" points="592.5,1275.9492,577.5,1281.9492,592.5,1287.9492,586.5,1281.9492" style="stroke:#383838;stroke-width:1.5;"/><line style="stroke:#383838;stroke-width:1.5;" x1="583.5" x2="1389.75" y1="1281.9492" y2="1281.9492"/><text fill="#000000" font-family="sans-serif" font-size="19.5" lengthAdjust="spacingAndGlyphs" textLength="235.5" x="601.5" y="1274.6646">setCommandLine(cl:String)</text><polygon fill="#383838" points="306,1321.4766,291,1327.4766,306,1333.4766,300,1327.4766" style="stroke:#383838;stroke-width:1.5;"/><line style="stroke:#383838;stroke-width:1.5;" x1="297" x2="567" y1="1327.4766" y2="1327.4766"/><text fill="#000000" font-family="sans-serif" font-size="19.5" lengthAdjust="spacingAndGlyphs" textLength="235.5" x="315" y="1320.1919">setCommandLine(cl:String)</text><polygon fill="#383838" points="1422.75,1367.0039,1407.75,1373.0039,1422.75,1379.0039,1416.75,1373.0039" style="stroke:#383838;stroke-width:1.5;"/><line style="stroke:#383838;stroke-width:1.5;stroke-dasharray:2.0,2.0;" x1="1413.75" x2="1596.75" y1="1373.0039" y2="1373.0039"/><text fill="#000000" font-family="sans-serif" font-size="19.5" lengthAdjust="spacingAndGlyphs" textLength="67.5" x="1431.75" y="1365.7192">boolean</text><polygon fill="#383838" points="1118.25,1412.5313,1103.25,1418.5313,1118.25,1424.5313,1112.25,1418.5313" style="stroke:#383838;stroke-width:1.5;"/><line style="stroke:#383838;stroke-width:1.5;stroke-dasharray:2.0,2.0;" x1="1109.25" x2="1389.75" y1="1418.5313" y2="1418.5313"/><text fill="#000000" font-family="sans-serif" font-size="19.5" lengthAdjust="spacingAndGlyphs" textLength="67.5" x="1127.25" y="1411.2466">boolean</text><polygon fill="#383838" points="592.5,1458.0586,577.5,1464.0586,592.5,1470.0586,586.5,1464.0586" style="stroke:#383838;stroke-width:1.5;"/><line style="stroke:#383838;stroke-width:1.5;" x1="583.5" x2="777" y1="1464.0586" y2="1464.0586"/><text fill="#000000" font-family="sans-serif" font-size="19.5" lengthAdjust="spacingAndGlyphs" textLength="174" x="601.5" y="1456.7739">restoreDefaultView()</text><polygon fill="#383838" points="298.5,1503.5859,283.5,1509.5859,298.5,1515.5859,292.5,1509.5859" style="stroke:#383838;stroke-width:1.5;"/><line style="stroke:#383838;stroke-width:1.5;" x1="289.5" x2="567" y1="1509.5859" y2="1509.5859"/><text fill="#000000" font-family="sans-serif" font-size="19.5" lengthAdjust="spacingAndGlyphs" textLength="174" x="307.5" y="1502.3013">restoreDefaultView()</text><!--MD5=[efa7d11ae294b22c4bba744e89ab5277]
@startuml
skinparam monochrome true
hide footbox
actor Benutzer as user

participant "main:MainWindow" as main
participant "c:Controller" as controller
participant "dummy:Checkout" as checkout
participant "checkoutView:CheckoutDialogView" as checkoutView
participant "checkout:Checkout" as checkoutCommand
participant "git:Git" as facade
participant "git:Git" as facade
participant "commit:GitCommit" as commit
participant "JGit:JGit" as JGit

user -> main : Drücken auf Checkout
activate main
create checkout
main - -> checkout : <<create>>
main -> checkout : onButtonClicked()
activate checkout
create checkoutView
checkout - -> checkoutView :  <<create>>
activate checkoutView

create facade
checkoutView - -> facade : <<create>>
checkoutView -> facade : getBranches()
activate facade
facade - -> checkoutView : List<GitBranch>
checkoutView -> facade : getCommits()
facade - -> checkoutView : List<GitCommit>
deactivate facade

checkout -> checkoutView : getView()
checkoutView - -> checkout : view:JPanel

checkout -> controller : openView(view)
activate controller
controller -> main : setView(view)
deactivate controller
deactivate checkout
user -> checkoutView : Nutzerintaraktion

create checkoutCommand
checkoutView - -> checkoutCommand : <<create>>

checkoutView ->checkoutCommand : checkout (commit)
activate checkoutCommand
checkoutCommand -> facade : checkout(commit)
activate facade
facade -> commit : getHash()
activate commit
commit - -> facade : name:String
deactivate commit
create JGit
facade - -> JGit : <<create>>
facade -> JGit : checkout().setName(name).call()
activate JGit
JGit - -> facade :
deactivate JGit
checkoutCommand -> controller : setCommandLine(cl:String)
activate controller
controller -> main : setCommandLine(cl:String)
deactivate controller
facade - -> checkoutCommand : boolean
deactivate facade
checkoutCommand - -> checkoutView : boolean
deactivate checkoutView
checkout -> controller : restoreDefaultView()
activate controller
controller -> main : restoreDefaultView()
deactivate controller


deactivate main

@enduml

PlantUML version 1.2020.23(Sun Dec 13 20:14:58 CET 2020)
(GPL source distribution)
Java Runtime: OpenJDK Runtime Environment
JVM: OpenJDK 64-Bit Server VM
Default Encoding: Cp1252
Language: de
Country: DE
--></g></svg>