<?xml version="1.0" encoding="UTF-8" standalone="no"?><svg xmlns="http://www.w3.org/2000/svg" xmlns:xlink="http://www.w3.org/1999/xlink" contentScriptType="application/ecmascript" contentStyleType="text/css" height="1617px" preserveAspectRatio="none" style="width:2116px;height:1617px;" version="1.1" viewBox="0 0 2116 1617" width="2116.5px" zoomAndPan="magnify"><defs><filter height="300%" id="f1bklkodjn4g8i" width="300%" x="-1" y="-1"><feGaussianBlur result="blurOut" stdDeviation="3.0"/><feColorMatrix in="blurOut" result="blurOut2" type="matrix" values="0 0 0 0 0 0 0 0 0 0 0 0 0 0 0 0 0 0 .4 0"/><feOffset dx="6.0" dy="6.0" in="blurOut2" result="blurOut3"/><feBlend in="SourceGraphic" in2="blurOut3" mode="normal"/></filter></defs><g><rect fill="#FFFFFF" filter="url(#f1bklkodjn4g8i)" height="1396.5586" style="stroke:#383838;stroke-width:1.5;" width="15" x="274.5" y="182.9414"/><rect fill="#FFFFFF" filter="url(#f1bklkodjn4g8i)" height="45.5273" style="stroke:#383838;stroke-width:1.5;" width="15" x="561" y="756.9023"/><rect fill="#FFFFFF" filter="url(#f1bklkodjn4g8i)" height="45.5273" style="stroke:#383838;stroke-width:1.5;" width="15" x="561" y="1351.8633"/><rect fill="#FFFFFF" filter="url(#f1bklkodjn4g8i)" height="45.5273" style="stroke:#383838;stroke-width:1.5;" width="15" x="561" y="1533.9727"/><rect fill="#FFFFFF" filter="url(#f1bklkodjn4g8i)" height="504.0469" style="stroke:#383838;stroke-width:1.5;" width="15" x="756.75" y="298.3828"/><rect fill="#FFFFFF" filter="url(#f1bklkodjn4g8i)" height="1129.5352" style="stroke:#383838;stroke-width:1.5;" width="15" x="1080" y="358.9102"/><rect fill="#FFFFFF" filter="url(#f1bklkodjn4g8i)" height="629.6016" style="stroke:#383838;stroke-width:1.5;" width="15" x="1377" y="963.3984"/><rect fill="#FFFFFF" filter="url(#f1bklkodjn4g8i)" height="136.582" style="stroke:#383838;stroke-width:1.5;" width="15" x="1537.5" y="483.7383"/><rect fill="#FFFFFF" filter="url(#f1bklkodjn4g8i)" height="364.0781" style="stroke:#383838;stroke-width:1.5;" width="15" x="1678.5" y="1078.8398"/><rect fill="#FFFFFF" filter="url(#f1bklkodjn4g8i)" height="45.5273" style="stroke:#383838;stroke-width:1.5;" width="15" x="1876.5" y="1124.3672"/><rect fill="#FFFFFF" filter="url(#f1bklkodjn4g8i)" height="21" style="stroke:#383838;stroke-width:1.5;" width="15" x="2042.25" y="1285.3359"/><line style="stroke:#383838;stroke-width:1.5;stroke-dasharray:5.0,5.0;" x1="54" x2="54" y1="134.4141" y2="1606.5"/><line style="stroke:#383838;stroke-width:1.5;stroke-dasharray:5.0,5.0;" x1="281.25" x2="281.25" y1="134.4141" y2="1606.5"/><line style="stroke:#383838;stroke-width:1.5;stroke-dasharray:5.0,5.0;" x1="568.5" x2="568.5" y1="134.4141" y2="1606.5"/><line style="stroke:#383838;stroke-width:1.5;stroke-dasharray:5.0,5.0;" x1="763.5" x2="763.5" y1="244.8984" y2="1606.5"/><line style="stroke:#383838;stroke-width:1.5;stroke-dasharray:5.0,5.0;" x1="1086.75" x2="1086.75" y1="360.3398" y2="1606.5"/><line style="stroke:#383838;stroke-width:1.5;stroke-dasharray:5.0,5.0;" x1="1383.75" x2="1383.75" y1="909.9141" y2="1606.5"/><line style="stroke:#383838;stroke-width:1.5;stroke-dasharray:5.0,5.0;" x1="1544.25" x2="1544.25" y1="430.2539" y2="1606.5"/><line style="stroke:#383838;stroke-width:1.5;stroke-dasharray:5.0,5.0;" x1="1685.25" x2="1685.25" y1="1025.3555" y2="1606.5"/><line style="stroke:#383838;stroke-width:1.5;stroke-dasharray:5.0,5.0;" x1="1883.25" x2="1883.25" y1="134.4141" y2="1606.5"/><line style="stroke:#383838;stroke-width:1.5;stroke-dasharray:5.0,5.0;" x1="2049.75" x2="2049.75" y1="1231.8516" y2="1606.5"/><text fill="#000000" font-family="sans-serif" font-size="21" lengthAdjust="spacing" textLength="84" x="7.5" y="129.7998">Benutzer</text><ellipse cx="54" cy="22.5" fill="#F8F8F8" filter="url(#f1bklkodjn4g8i)" rx="12" ry="12" style="stroke:#383838;stroke-width:3.0;"/><path d="M54,34.5 L54,75 M34.5,46.5 L73.5,46.5 M54,75 L34.5,97.5 M54,75 L73.5,97.5 " fill="none" filter="url(#f1bklkodjn4g8i)" style="stroke:#383838;stroke-width:3.0;"/><rect fill="#F8F8F8" filter="url(#f1bklkodjn4g8i)" height="47.4141" style="stroke:#383838;stroke-width:2.25;" width="190.5" x="183.75" y="79.5"/><text fill="#000000" font-family="sans-serif" font-size="21" lengthAdjust="spacing" textLength="169.5" x="194.25" y="111.7998">main:MainWindow</text><rect fill="#F8F8F8" filter="url(#f1bklkodjn4g8i)" height="47.4141" style="stroke:#383838;stroke-width:2.25;" width="165" x="483" y="79.5"/><text fill="#000000" font-family="sans-serif" font-size="21" lengthAdjust="spacing" textLength="144" x="493.5" y="111.7998">c:GUIController</text><rect fill="#F8F8F8" filter="url(#f1bklkodjn4g8i)" height="47.4141" style="stroke:#383838;stroke-width:2.25;" width="190.5" x="1785.75" y="79.5"/><text fill="#000000" font-family="sans-serif" font-size="21" lengthAdjust="spacing" textLength="169.5" x="1796.25" y="111.7998">commit:GitCommit</text><rect fill="#FFFFFF" filter="url(#f1bklkodjn4g8i)" height="1396.5586" style="stroke:#383838;stroke-width:1.5;" width="15" x="274.5" y="182.9414"/><rect fill="#FFFFFF" filter="url(#f1bklkodjn4g8i)" height="45.5273" style="stroke:#383838;stroke-width:1.5;" width="15" x="561" y="756.9023"/><rect fill="#FFFFFF" filter="url(#f1bklkodjn4g8i)" height="45.5273" style="stroke:#383838;stroke-width:1.5;" width="15" x="561" y="1351.8633"/><rect fill="#FFFFFF" filter="url(#f1bklkodjn4g8i)" height="45.5273" style="stroke:#383838;stroke-width:1.5;" width="15" x="561" y="1533.9727"/><rect fill="#FFFFFF" filter="url(#f1bklkodjn4g8i)" height="504.0469" style="stroke:#383838;stroke-width:1.5;" width="15" x="756.75" y="298.3828"/><rect fill="#FFFFFF" filter="url(#f1bklkodjn4g8i)" height="1129.5352" style="stroke:#383838;stroke-width:1.5;" width="15" x="1080" y="358.9102"/><rect fill="#FFFFFF" filter="url(#f1bklkodjn4g8i)" height="629.6016" style="stroke:#383838;stroke-width:1.5;" width="15" x="1377" y="963.3984"/><rect fill="#FFFFFF" filter="url(#f1bklkodjn4g8i)" height="136.582" style="stroke:#383838;stroke-width:1.5;" width="15" x="1537.5" y="483.7383"/><rect fill="#FFFFFF" filter="url(#f1bklkodjn4g8i)" height="364.0781" style="stroke:#383838;stroke-width:1.5;" width="15" x="1678.5" y="1078.8398"/><rect fill="#FFFFFF" filter="url(#f1bklkodjn4g8i)" height="45.5273" style="stroke:#383838;stroke-width:1.5;" width="15" x="1876.5" y="1124.3672"/><rect fill="#FFFFFF" filter="url(#f1bklkodjn4g8i)" height="21" style="stroke:#383838;stroke-width:1.5;" width="15" x="2042.25" y="1285.3359"/><polygon fill="#383838" points="256.5,176.9414,271.5,182.9414,256.5,188.9414,262.5,182.9414" style="stroke:#383838;stroke-width:1.5;"/><line style="stroke:#383838;stroke-width:1.5;" x1="54" x2="265.5" y1="182.9414" y2="182.9414"/><text fill="#000000" font-family="sans-serif" font-size="19.5" lengthAdjust="spacing" textLength="192" x="64.5" y="175.6567">Drücken auf Checkout</text><polygon fill="#383838" points="651,222.4688,666,228.4688,651,234.4688,657,228.4688" style="stroke:#383838;stroke-width:1.5;"/><line style="stroke:#383838;stroke-width:1.5;stroke-dasharray:2.0,2.0;" x1="289.5" x2="660" y1="228.4688" y2="228.4688"/><text fill="#000000" font-family="sans-serif" font-size="19.5" lengthAdjust="spacing" textLength="102" x="300" y="221.1841">&lt;&lt;create&gt;&gt;</text><rect fill="#F8F8F8" filter="url(#f1bklkodjn4g8i)" height="47.4141" style="stroke:#383838;stroke-width:2.25;" width="184.5" x="669" y="194.9414"/><text fill="#000000" font-family="sans-serif" font-size="21" lengthAdjust="spacing" textLength="163.5" x="679.5" y="227.2412">dummy:Checkout</text><polygon fill="#383838" points="738.75,292.3828,753.75,298.3828,738.75,304.3828,744.75,298.3828" style="stroke:#383838;stroke-width:1.5;"/><line style="stroke:#383838;stroke-width:1.5;" x1="289.5" x2="747.75" y1="298.3828" y2="298.3828"/><text fill="#000000" font-family="sans-serif" font-size="19.5" lengthAdjust="spacing" textLength="154.5" x="300" y="291.0981">onButtonClicked()</text><polygon fill="#383838" points="891.75,337.9102,906.75,343.9102,891.75,349.9102,897.75,343.9102" style="stroke:#383838;stroke-width:1.5;"/><line style="stroke:#383838;stroke-width:1.5;stroke-dasharray:2.0,2.0;" x1="771.75" x2="900.75" y1="343.9102" y2="343.9102"/><text fill="#000000" font-family="sans-serif" font-size="19.5" lengthAdjust="spacing" textLength="102" x="782.25" y="336.6255">&lt;&lt;create&gt;&gt;</text><rect fill="#F8F8F8" filter="url(#f1bklkodjn4g8i)" height="47.4141" style="stroke:#383838;stroke-width:2.25;" width="349.5" x="909.75" y="310.3828"/><text fill="#000000" font-family="sans-serif" font-size="21" lengthAdjust="spacing" textLength="328.5" x="920.25" y="342.6826">checkoutView:CheckoutDialogView</text><polygon fill="#383838" points="1485.75,407.8242,1500.75,413.8242,1485.75,419.8242,1491.75,413.8242" style="stroke:#383838;stroke-width:1.5;"/><line style="stroke:#383838;stroke-width:1.5;stroke-dasharray:2.0,2.0;" x1="1095" x2="1494.75" y1="413.8242" y2="413.8242"/><text fill="#000000" font-family="sans-serif" font-size="19.5" lengthAdjust="spacing" textLength="102" x="1105.5" y="406.5396">&lt;&lt;create&gt;&gt;</text><rect fill="#F8F8F8" filter="url(#f1bklkodjn4g8i)" height="47.4141" style="stroke:#383838;stroke-width:2.25;" width="76.5" x="1503.75" y="380.2969"/><text fill="#000000" font-family="sans-serif" font-size="21" lengthAdjust="spacing" textLength="55.5" x="1514.25" y="412.5967">git:Git</text><polygon fill="#383838" points="1519.5,477.7383,1534.5,483.7383,1519.5,489.7383,1525.5,483.7383" style="stroke:#383838;stroke-width:1.5;"/><line style="stroke:#383838;stroke-width:1.5;" x1="1095" x2="1528.5" y1="483.7383" y2="483.7383"/><text fill="#000000" font-family="sans-serif" font-size="19.5" lengthAdjust="spacing" textLength="121.5" x="1105.5" y="476.4536">getBranches()</text><polygon fill="#383838" points="1111.5,523.2656,1096.5,529.2656,1111.5,535.2656,1105.5,529.2656" style="stroke:#383838;stroke-width:1.5;"/><line style="stroke:#383838;stroke-width:1.5;stroke-dasharray:2.0,2.0;" x1="1102.5" x2="1536" y1="529.2656" y2="529.2656"/><text fill="#000000" font-family="sans-serif" font-size="19.5" lengthAdjust="spacing" textLength="142.5" x="1120.5" y="521.981">List&lt;GitBranch&gt;</text><polygon fill="#383838" points="1519.5,568.793,1534.5,574.793,1519.5,580.793,1525.5,574.793" style="stroke:#383838;stroke-width:1.5;"/><line style="stroke:#383838;stroke-width:1.5;" x1="1095" x2="1528.5" y1="574.793" y2="574.793"/><text fill="#000000" font-family="sans-serif" font-size="19.5" lengthAdjust="spacing" textLength="117" x="1105.5" y="567.5083">getCommits()</text><polygon fill="#383838" points="1111.5,614.3203,1096.5,620.3203,1111.5,626.3203,1105.5,620.3203" style="stroke:#383838;stroke-width:1.5;"/><line style="stroke:#383838;stroke-width:1.5;stroke-dasharray:2.0,2.0;" x1="1102.5" x2="1543.5" y1="620.3203" y2="620.3203"/><text fill="#000000" font-family="sans-serif" font-size="19.5" lengthAdjust="spacing" textLength="148.5" x="1120.5" y="613.0356">List&lt;GitCommit&gt;</text><polygon fill="#383838" points="1062,659.8477,1077,665.8477,1062,671.8477,1068,665.8477" style="stroke:#383838;stroke-width:1.5;"/><line style="stroke:#383838;stroke-width:1.5;" x1="771.75" x2="1071" y1="665.8477" y2="665.8477"/><text fill="#000000" font-family="sans-serif" font-size="19.5" lengthAdjust="spacing" textLength="81" x="782.25" y="658.563">getView()</text><polygon fill="#383838" points="788.25,705.375,773.25,711.375,788.25,717.375,782.25,711.375" style="stroke:#383838;stroke-width:1.5;"/><line style="stroke:#383838;stroke-width:1.5;stroke-dasharray:2.0,2.0;" x1="779.25" x2="1078.5" y1="711.375" y2="711.375"/><text fill="#000000" font-family="sans-serif" font-size="19.5" lengthAdjust="spacing" textLength="100.5" x="797.25" y="704.0903">view:JPanel</text><polygon fill="#383838" points="592.5,750.9023,577.5,756.9023,592.5,762.9023,586.5,756.9023" style="stroke:#383838;stroke-width:1.5;"/><line style="stroke:#383838;stroke-width:1.5;" x1="583.5" x2="755.25" y1="756.9023" y2="756.9023"/><text fill="#000000" font-family="sans-serif" font-size="19.5" lengthAdjust="spacing" textLength="132" x="601.5" y="749.6177">openView(view)</text><polygon fill="#383838" points="306,796.4297,291,802.4297,306,808.4297,300,802.4297" style="stroke:#383838;stroke-width:1.5;"/><line style="stroke:#383838;stroke-width:1.5;" x1="297" x2="567" y1="802.4297" y2="802.4297"/><text fill="#000000" font-family="sans-serif" font-size="19.5" lengthAdjust="spacing" textLength="117" x="315" y="795.145">setView(view)</text><polygon fill="#383838" points="1062,841.957,1077,847.957,1062,853.957,1068,847.957" style="stroke:#383838;stroke-width:1.5;"/><line style="stroke:#383838;stroke-width:1.5;" x1="54" x2="1071" y1="847.957" y2="847.957"/><text fill="#000000" font-family="sans-serif" font-size="19.5" lengthAdjust="spacing" textLength="147" x="64.5" y="840.6724">Nutzerintaraktion</text><polygon fill="#383838" points="1262.25,887.4844,1277.25,893.4844,1262.25,899.4844,1268.25,893.4844" style="stroke:#383838;stroke-width:1.5;"/><line style="stroke:#383838;stroke-width:1.5;stroke-dasharray:2.0,2.0;" x1="1095" x2="1271.25" y1="893.4844" y2="893.4844"/><text fill="#000000" font-family="sans-serif" font-size="19.5" lengthAdjust="spacing" textLength="102" x="1105.5" y="886.1997">&lt;&lt;create&gt;&gt;</text><rect fill="#F8F8F8" filter="url(#f1bklkodjn4g8i)" height="47.4141" style="stroke:#383838;stroke-width:2.25;" width="202.5" x="1280.25" y="859.957"/><text fill="#000000" font-family="sans-serif" font-size="21" lengthAdjust="spacing" textLength="181.5" x="1290.75" y="892.2568">checkout:Checkout</text><polygon fill="#383838" points="1359,957.3984,1374,963.3984,1359,969.3984,1365,963.3984" style="stroke:#383838;stroke-width:1.5;"/><line style="stroke:#383838;stroke-width:1.5;" x1="1095" x2="1368" y1="963.3984" y2="963.3984"/><text fill="#000000" font-family="sans-serif" font-size="19.5" lengthAdjust="spacing" textLength="162" x="1105.5" y="956.1138">checkout (commit)</text><polygon fill="#383838" points="1583.25,1002.9258,1598.25,1008.9258,1583.25,1014.9258,1589.25,1008.9258" style="stroke:#383838;stroke-width:1.5;"/><line style="stroke:#383838;stroke-width:1.5;stroke-dasharray:2.0,2.0;" x1="1392" x2="1592.25" y1="1008.9258" y2="1008.9258"/><text fill="#000000" font-family="sans-serif" font-size="19.5" lengthAdjust="spacing" textLength="102" x="1402.5" y="1001.6411">&lt;&lt;create&gt;&gt;</text><rect fill="#F8F8F8" filter="url(#f1bklkodjn4g8i)" height="47.4141" style="stroke:#383838;stroke-width:2.25;" width="163.5" x="1601.25" y="975.3984"/><text fill="#000000" font-family="sans-serif" font-size="21" lengthAdjust="spacing" textLength="142.5" x="1611.75" y="1007.6982">facade:Facade</text><polygon fill="#383838" points="1660.5,1072.8398,1675.5,1078.8398,1660.5,1084.8398,1666.5,1078.8398" style="stroke:#383838;stroke-width:1.5;"/><line style="stroke:#383838;stroke-width:1.5;" x1="1392" x2="1669.5" y1="1078.8398" y2="1078.8398"/><text fill="#000000" font-family="sans-serif" font-size="19.5" lengthAdjust="spacing" textLength="156" x="1402.5" y="1071.5552">checkout(commit)</text><polygon fill="#383838" points="1858.5,1118.3672,1873.5,1124.3672,1858.5,1130.3672,1864.5,1124.3672" style="stroke:#383838;stroke-width:1.5;"/><line style="stroke:#383838;stroke-width:1.5;" x1="1693.5" x2="1867.5" y1="1124.3672" y2="1124.3672"/><text fill="#000000" font-family="sans-serif" font-size="19.5" lengthAdjust="spacing" textLength="84" x="1704" y="1117.0825">getHash()</text><polygon fill="#383838" points="1710,1163.8945,1695,1169.8945,1710,1175.8945,1704,1169.8945" style="stroke:#383838;stroke-width:1.5;"/><line style="stroke:#383838;stroke-width:1.5;stroke-dasharray:2.0,2.0;" x1="1701" x2="1882.5" y1="1169.8945" y2="1169.8945"/><text fill="#000000" font-family="sans-serif" font-size="19.5" lengthAdjust="spacing" textLength="105" x="1719" y="1162.6099">name:String</text><polygon fill="#383838" points="1979.25,1209.4219,1994.25,1215.4219,1979.25,1221.4219,1985.25,1215.4219" style="stroke:#383838;stroke-width:1.5;"/><line style="stroke:#383838;stroke-width:1.5;stroke-dasharray:2.0,2.0;" x1="1693.5" x2="1988.25" y1="1215.4219" y2="1215.4219"/><text fill="#000000" font-family="sans-serif" font-size="19.5" lengthAdjust="spacing" textLength="102" x="1704" y="1208.1372">&lt;&lt;create&gt;&gt;</text><rect fill="#F8F8F8" filter="url(#f1bklkodjn4g8i)" height="47.4141" style="stroke:#383838;stroke-width:2.25;" width="99" x="1997.25" y="1181.8945"/><text fill="#000000" font-family="sans-serif" font-size="21" lengthAdjust="spacing" textLength="78" x="2007.75" y="1214.1943">JGit:JGit</text><polygon fill="#383838" points="2024.25,1279.3359,2039.25,1285.3359,2024.25,1291.3359,2030.25,1285.3359" style="stroke:#383838;stroke-width:1.5;"/><line style="stroke:#383838;stroke-width:1.5;" x1="1693.5" x2="2033.25" y1="1285.3359" y2="1285.3359"/><text fill="#000000" font-family="sans-serif" font-size="19.5" lengthAdjust="spacing" textLength="283.5" x="1704" y="1278.0513">checkout().setName(name).call()</text><polygon fill="#383838" points="1710,1300.3359,1695,1306.3359,1710,1312.3359,1704,1306.3359" style="stroke:#383838;stroke-width:1.5;"/><line style="stroke:#383838;stroke-width:1.5;stroke-dasharray:2.0,2.0;" x1="1701" x2="2048.25" y1="1306.3359" y2="1306.3359"/><polygon fill="#383838" points="592.5,1345.8633,577.5,1351.8633,592.5,1357.8633,586.5,1351.8633" style="stroke:#383838;stroke-width:1.5;"/><line style="stroke:#383838;stroke-width:1.5;" x1="583.5" x2="1375.5" y1="1351.8633" y2="1351.8633"/><text fill="#000000" font-family="sans-serif" font-size="19.5" lengthAdjust="spacing" textLength="235.5" x="601.5" y="1344.5786">setCommandLine(cl:String)</text><polygon fill="#383838" points="306,1391.3906,291,1397.3906,306,1403.3906,300,1397.3906" style="stroke:#383838;stroke-width:1.5;"/><line style="stroke:#383838;stroke-width:1.5;" x1="297" x2="567" y1="1397.3906" y2="1397.3906"/><text fill="#000000" font-family="sans-serif" font-size="19.5" lengthAdjust="spacing" textLength="235.5" x="315" y="1390.106">setCommandLine(cl:String)</text><polygon fill="#383838" points="1408.5,1436.918,1393.5,1442.918,1408.5,1448.918,1402.5,1442.918" style="stroke:#383838;stroke-width:1.5;"/><line style="stroke:#383838;stroke-width:1.5;stroke-dasharray:2.0,2.0;" x1="1399.5" x2="1684.5" y1="1442.918" y2="1442.918"/><text fill="#000000" font-family="sans-serif" font-size="19.5" lengthAdjust="spacing" textLength="67.5" x="1417.5" y="1435.6333">boolean</text><polygon fill="#383838" points="1104,1482.4453,1089,1488.4453,1104,1494.4453,1098,1488.4453" style="stroke:#383838;stroke-width:1.5;"/><line style="stroke:#383838;stroke-width:1.5;stroke-dasharray:2.0,2.0;" x1="1095" x2="1375.5" y1="1488.4453" y2="1488.4453"/><text fill="#000000" font-family="sans-serif" font-size="19.5" lengthAdjust="spacing" textLength="67.5" x="1113" y="1481.1606">boolean</text><polygon fill="#383838" points="592.5,1527.9727,577.5,1533.9727,592.5,1539.9727,586.5,1533.9727" style="stroke:#383838;stroke-width:1.5;"/><line style="stroke:#383838;stroke-width:1.5;" x1="583.5" x2="1086" y1="1533.9727" y2="1533.9727"/><text fill="#000000" font-family="sans-serif" font-size="19.5" lengthAdjust="spacing" textLength="174" x="601.5" y="1526.688">restoreDefaultView()</text><polygon fill="#383838" points="298.5,1573.5,283.5,1579.5,298.5,1585.5,292.5,1579.5" style="stroke:#383838;stroke-width:1.5;"/><line style="stroke:#383838;stroke-width:1.5;" x1="289.5" x2="567" y1="1579.5" y2="1579.5"/><text fill="#000000" font-family="sans-serif" font-size="19.5" lengthAdjust="spacing" textLength="174" x="307.5" y="1572.2153">restoreDefaultView()</text><!--MD5=[6940eadb59f28a959bb6ac6348e617a5]
@startuml
skinparam monochrome true
hide footbox
actor Benutzer as user

participant "main:MainWindow" as main
participant "c:GUIController" as controller
participant "dummy:Checkout" as checkout
participant "checkoutView:CheckoutDialogView" as checkoutView
participant "checkout:Checkout" as checkoutCommand
participant "git:Git" as git
participant "facade:Facade" as facade
participant "commit:GitCommit" as commit
participant "JGit:JGit" as JGit

user -> main : Drücken auf Checkout
activate main
create checkout
main - -> checkout : <<create>>
main -> checkout : onButtonClicked()
activate checkout
create checkoutView
checkout - -> checkoutView :  <<create>>
activate checkoutView

create git
checkoutView - -> git : <<create>>
checkoutView -> git : getBranches()
activate git
git - -> checkoutView : List<GitBranch>
checkoutView -> git : getCommits()
git - -> checkoutView : List<GitCommit>
deactivate git

checkout -> checkoutView : getView()
checkoutView - -> checkout : view:JPanel

checkout -> controller : openView(view)
activate controller
controller -> main : setView(view)
deactivate controller
deactivate checkout
user -> checkoutView : Nutzerintaraktion

create checkoutCommand
checkoutView - -> checkoutCommand : <<create>>

checkoutView ->checkoutCommand : checkout (commit)
activate checkoutCommand
create facade
checkoutCommand - -> facade : <<create>>
checkoutCommand -> facade : checkout(commit)
activate facade
facade -> commit : getHash()
activate commit
commit - -> facade : name:String
deactivate commit
create JGit
facade - -> JGit : <<create>>
facade -> JGit : checkout().setName(name).call()
activate JGit
JGit - -> facade :
deactivate JGit
checkoutCommand -> controller : setCommandLine(cl:String)
activate controller
controller -> main : setCommandLine(cl:String)
deactivate controller
facade - -> checkoutCommand : boolean
deactivate facade
checkoutCommand - -> checkoutView : boolean
deactivate checkoutView
checkoutView -> controller : restoreDefaultView()
activate controller
controller -> main : restoreDefaultView()
deactivate controller


deactivate main

@enduml

PlantUML version 1.2021.00(Sun Jan 10 11:25:05 CET 2021)
(GPL source distribution)
Java Runtime: OpenJDK Runtime Environment
JVM: OpenJDK 64-Bit Server VM
Default Encoding: Cp1252
Language: de
Country: DE
--></g></svg>