<?xml version="1.0" encoding="UTF-8" standalone="no"?><svg xmlns="http://www.w3.org/2000/svg" xmlns:xlink="http://www.w3.org/1999/xlink" contentScriptType="application/ecmascript" contentStyleType="text/css" height="376.5px" preserveAspectRatio="none" style="width:1201px;height:376px;" version="1.1" viewBox="0 0 1201 376" width="1201.5px" zoomAndPan="magnify"><defs><filter height="300%" id="fagmijmxm0aud" width="300%" x="-1" y="-1"><feGaussianBlur result="blurOut" stdDeviation="3.0"/><feColorMatrix in="blurOut" result="blurOut2" type="matrix" values="0 0 0 0 0 0 0 0 0 0 0 0 0 0 0 0 0 0 .4 0"/><feOffset dx="6.0" dy="6.0" in="blurOut2" result="blurOut3"/><feBlend in="SourceGraphic" in2="blurOut3" mode="normal"/></filter></defs><g><!--MD5=[557e87fa3e066046f14ec6a24315567e]
cluster gitclient--><polygon fill="#FFFFFF" filter="url(#fagmijmxm0aud)" points="24,9,118.5,9,129,44.4141,1176,44.4141,1176,366,24,366,24,9" style="stroke:#000000;stroke-width:2.25;"/><line style="stroke:#000000;stroke-width:2.25;" x1="24" x2="129" y1="44.4141" y2="44.4141"/><text fill="#000000" font-family="sans-serif" font-size="21" font-weight="bold" lengthAdjust="spacing" textLength="85.5" x="30" y="33.7998">gitclient</text><!--MD5=[9ac95a62b6bea9fd5cbb09176a2aa23f]
cluster git--><polygon fill="#FFFFFF" filter="url(#fagmijmxm0aud)" points="912,75,948,75,958.5,110.4141,1140,110.4141,1140,214.5,912,214.5,912,75" style="stroke:#000000;stroke-width:2.25;"/><line style="stroke:#000000;stroke-width:2.25;" x1="912" x2="958.5" y1="110.4141" y2="110.4141"/><text fill="#000000" font-family="sans-serif" font-size="21" font-weight="bold" lengthAdjust="spacing" textLength="27" x="918" y="99.7998">git</text><!--MD5=[e2a75efa8a0f57c2afae8bf75386f79c]
cluster views--><polygon fill="#FFFFFF" filter="url(#fagmijmxm0aud)" points="714,75,784.5,75,795,110.4141,876,110.4141,876,214.5,714,214.5,714,75" style="stroke:#000000;stroke-width:2.25;"/><line style="stroke:#000000;stroke-width:2.25;" x1="714" x2="795" y1="110.4141" y2="110.4141"/><text fill="#000000" font-family="sans-serif" font-size="21" font-weight="bold" lengthAdjust="spacing" textLength="61.5" x="720" y="99.7998">views</text><!--MD5=[2aa4b4b04ba3b8900fe9e4a2958d32d2]
entity commands--><polygon fill="#F8F8F8" filter="url(#fagmijmxm0aud)" points="48.75,129,188.25,129,198.75,164.4141,224.25,164.4141,224.25,189.9141,48.75,189.9141,48.75,129" style="stroke:#000000;stroke-width:2.25;"/><line style="stroke:#000000;stroke-width:2.25;" x1="48.75" x2="198.75" y1="164.4141" y2="164.4141"/><text fill="#000000" font-family="sans-serif" font-size="21" font-weight="bold" lengthAdjust="spacing" textLength="112.5" x="63.75" y="155.2998">commands</text><!--MD5=[c05fcadc036a699206cfdfa4a4fdb889]
entity controller--><polygon fill="#F8F8F8" filter="url(#fagmijmxm0aud)" points="276.75,129,407.25,129,417.75,164.4141,443.25,164.4141,443.25,189.9141,276.75,189.9141,276.75,129" style="stroke:#000000;stroke-width:2.25;"/><line style="stroke:#000000;stroke-width:2.25;" x1="276.75" x2="417.75" y1="164.4141" y2="164.4141"/><text fill="#000000" font-family="sans-serif" font-size="21" font-weight="bold" lengthAdjust="spacing" textLength="103.5" x="291.75" y="155.2998">controller</text><!--MD5=[92c914d14ffa40bbc0a3a8cb1e0c29f3]
entity dialogviews--><polygon fill="#F8F8F8" filter="url(#fagmijmxm0aud)" points="496.5,129,649.5,129,660,164.4141,685.5,164.4141,685.5,189.9141,496.5,189.9141,496.5,129" style="stroke:#000000;stroke-width:2.25;"/><line style="stroke:#000000;stroke-width:2.25;" x1="496.5" x2="660" y1="164.4141" y2="164.4141"/><text fill="#000000" font-family="sans-serif" font-size="21" font-weight="bold" lengthAdjust="spacing" textLength="126" x="511.5" y="155.2998">dialogviews</text><!--MD5=[147c259ed029383ad114747cdedb123f]
entity levels--><polygon fill="#F8F8F8" filter="url(#fagmijmxm0aud)" points="72.75,280.5,164.25,280.5,174.75,315.9141,200.25,315.9141,200.25,341.4141,72.75,341.4141,72.75,280.5" style="stroke:#000000;stroke-width:2.25;"/><line style="stroke:#000000;stroke-width:2.25;" x1="72.75" x2="174.75" y1="315.9141" y2="315.9141"/><text fill="#000000" font-family="sans-serif" font-size="21" font-weight="bold" lengthAdjust="spacing" textLength="64.5" x="87.75" y="306.7998">levels</text><!--MD5=[44df82fb778fec0901a72cffa7010adb]
entity settings--><polygon fill="#F8F8F8" filter="url(#fagmijmxm0aud)" points="252.75,280.5,365.25,280.5,375.75,315.9141,401.25,315.9141,401.25,341.4141,252.75,341.4141,252.75,280.5" style="stroke:#000000;stroke-width:2.25;"/><line style="stroke:#000000;stroke-width:2.25;" x1="252.75" x2="375.75" y1="315.9141" y2="315.9141"/><text fill="#000000" font-family="sans-serif" font-size="21" font-weight="bold" lengthAdjust="spacing" textLength="85.5" x="267.75" y="306.7998">settings</text><!--MD5=[1cb715a40398ef3607f1d329c54535e7]
entity exceptions--><polygon fill="#F8F8F8" filter="url(#fagmijmxm0aud)" points="936,129,1080,129,1090.5,164.4141,1116,164.4141,1116,189.9141,936,189.9141,936,129" style="stroke:#000000;stroke-width:2.25;"/><line style="stroke:#000000;stroke-width:2.25;" x1="936" x2="1090.5" y1="164.4141" y2="164.4141"/><text fill="#000000" font-family="sans-serif" font-size="21" font-weight="bold" lengthAdjust="spacing" textLength="117" x="951" y="155.2998">exceptions</text><!--MD5=[42f5dcd2bb0ba87fb960d0d08bcd7c79]
entity filter--><polygon fill="#F8F8F8" filter="url(#fagmijmxm0aud)" points="738.75,129,815.25,129,825.75,164.4141,851.25,164.4141,851.25,189.9141,738.75,189.9141,738.75,129" style="stroke:#000000;stroke-width:2.25;"/><line style="stroke:#000000;stroke-width:2.25;" x1="738.75" x2="825.75" y1="164.4141" y2="164.4141"/><text fill="#000000" font-family="sans-serif" font-size="21" font-weight="bold" lengthAdjust="spacing" textLength="49.5" x="753.75" y="155.2998">filter</text><!--MD5=[73c0c45a52a6a2965b32d1503938159e]
link commands to controller--><!--MD5=[7bb27fc38af075297755b137e6209f33]
link controller to dialogviews--><!--MD5=[47d1bf513b4715252dde2abf7d04dcde]
link commands to levels--><!--MD5=[26358a0d337caae96483d1613ef8b52b]
link levels to settings--><!--MD5=[2f19dd375dcbb1ce44fed1416c464b04]
@startuml
skinparam monochrome true

package gitclient {
package commands 
package controller
package dialogviews 
package git{
package exceptions
 }
package levels
package settings
package views {
package filter
}
}
@enduml

PlantUML version 1.2021.00(Sun Jan 10 11:25:05 CET 2021)
(GPL source distribution)
Java Runtime: OpenJDK Runtime Environment
JVM: OpenJDK 64-Bit Server VM
Default Encoding: Cp1252
Language: de
Country: DE
--></g></svg>