<?xml version="1.0" encoding="UTF-8" standalone="no"?><svg xmlns="http://www.w3.org/2000/svg" xmlns:xlink="http://www.w3.org/1999/xlink" contentScriptType="application/ecmascript" contentStyleType="text/css" height="514.5px" preserveAspectRatio="none" style="width:753px;height:514px;" version="1.1" viewBox="0 0 753 514" width="753px" zoomAndPan="magnify"><defs><filter height="300%" id="f1frd10gpklckx" width="300%" x="-1" y="-1"><feGaussianBlur result="blurOut" stdDeviation="3.0"/><feColorMatrix in="blurOut" result="blurOut2" type="matrix" values="0 0 0 0 0 0 0 0 0 0 0 0 0 0 0 0 0 0 .4 0"/><feOffset dx="6.0" dy="6.0" in="blurOut2" result="blurOut3"/><feBlend in="SourceGraphic" in2="blurOut3" mode="normal"/></filter></defs><g><rect fill="#FFFFFF" filter="url(#f1frd10gpklckx)" height="414.4922" style="stroke:#383838;stroke-width:1.5;" width="15" x="39.75" y="77.4141"/><rect fill="#FFFFFF" filter="url(#f1frd10gpklckx)" height="297.5508" style="stroke:#383838;stroke-width:1.5;" width="15" x="388.5" y="180.8555"/><rect fill="#FFFFFF" filter="url(#f1frd10gpklckx)" height="136.582" style="stroke:#383838;stroke-width:1.5;" width="15" x="633" y="296.2969"/><line style="stroke:#383838;stroke-width:1.5;stroke-dasharray:5.0,5.0;" x1="46.5" x2="46.5" y1="62.4141" y2="505.4063"/><line style="stroke:#383838;stroke-width:1.5;stroke-dasharray:5.0,5.0;" x1="395.25" x2="395.25" y1="127.3711" y2="505.4063"/><line style="stroke:#383838;stroke-width:1.5;stroke-dasharray:5.0,5.0;" x1="639.75" x2="639.75" y1="242.8125" y2="505.4063"/><rect fill="#F8F8F8" filter="url(#f1frd10gpklckx)" height="47.4141" style="stroke:#383838;stroke-width:2.25;" width="73.5" x="7.5" y="7.5"/><text fill="#000000" font-family="sans-serif" font-size="21" lengthAdjust="spacing" textLength="52.5" x="18" y="39.7998">p:Pull</text><rect fill="#FFFFFF" filter="url(#f1frd10gpklckx)" height="414.4922" style="stroke:#383838;stroke-width:1.5;" width="15" x="39.75" y="77.4141"/><rect fill="#FFFFFF" filter="url(#f1frd10gpklckx)" height="297.5508" style="stroke:#383838;stroke-width:1.5;" width="15" x="388.5" y="180.8555"/><rect fill="#FFFFFF" filter="url(#f1frd10gpklckx)" height="136.582" style="stroke:#383838;stroke-width:1.5;" width="15" x="633" y="296.2969"/><polygon fill="#383838" points="291.75,104.9414,306.75,110.9414,291.75,116.9414,297.75,110.9414" style="stroke:#383838;stroke-width:1.5;"/><line style="stroke:#383838;stroke-width:1.5;" x1="54.75" x2="300.75" y1="110.9414" y2="110.9414"/><text fill="#000000" font-family="sans-serif" font-size="19.5" lengthAdjust="spacing" textLength="219" x="65.25" y="103.6567">&lt;&lt;create&gt;&gt; Rebase(a, b)</text><rect fill="#F8F8F8" filter="url(#f1frd10gpklckx)" height="47.4141" style="stroke:#383838;stroke-width:2.25;" width="166.5" x="309.75" y="77.4141"/><text fill="#000000" font-family="sans-serif" font-size="21" lengthAdjust="spacing" textLength="145.5" x="320.25" y="109.7139">rebase:Rebase</text><polygon fill="#383838" points="370.5,174.8555,385.5,180.8555,370.5,186.8555,376.5,180.8555" style="stroke:#383838;stroke-width:1.5;"/><line style="stroke:#383838;stroke-width:1.5;" x1="54.75" x2="379.5" y1="180.8555" y2="180.8555"/><text fill="#000000" font-family="sans-serif" font-size="19.5" lengthAdjust="spacing" textLength="81" x="65.25" y="173.5708">execute()</text><polygon fill="#383838" points="524.25,220.3828,539.25,226.3828,524.25,232.3828,530.25,226.3828" style="stroke:#383838;stroke-width:1.5;"/><line style="stroke:#383838;stroke-width:1.5;" x1="403.5" x2="533.25" y1="226.3828" y2="226.3828"/><text fill="#000000" font-family="sans-serif" font-size="19.5" lengthAdjust="spacing" textLength="102" x="414" y="219.0981">&lt;&lt;create&gt;&gt;</text><rect fill="#F8F8F8" filter="url(#f1frd10gpklckx)" height="47.4141" style="stroke:#383838;stroke-width:2.25;" width="190.5" x="542.25" y="192.8555"/><text fill="#000000" font-family="sans-serif" font-size="21" lengthAdjust="spacing" textLength="169.5" x="552.75" y="225.1553">facade:GitFacade</text><polygon fill="#383838" points="615,290.2969,630,296.2969,615,302.2969,621,296.2969" style="stroke:#383838;stroke-width:1.5;"/><line style="stroke:#383838;stroke-width:1.5;" x1="403.5" x2="624" y1="296.2969" y2="296.2969"/><text fill="#000000" font-family="sans-serif" font-size="19.5" lengthAdjust="spacing" textLength="201" x="414" y="289.0122">checkout (a:GitBranch)</text><polygon fill="#383838" points="420,335.8242,405,341.8242,420,347.8242,414,341.8242" style="stroke:#383838;stroke-width:1.5;"/><line style="stroke:#383838;stroke-width:1.5;stroke-dasharray:2.0,2.0;" x1="411" x2="631.5" y1="341.8242" y2="341.8242"/><text fill="#000000" font-family="sans-serif" font-size="19.5" lengthAdjust="spacing" textLength="67.5" x="429" y="334.5396">boolean</text><polygon fill="#383838" points="615,381.3516,630,387.3516,615,393.3516,621,387.3516" style="stroke:#383838;stroke-width:1.5;"/><line style="stroke:#383838;stroke-width:1.5;" x1="403.5" x2="624" y1="387.3516" y2="387.3516"/><text fill="#000000" font-family="sans-serif" font-size="19.5" lengthAdjust="spacing" textLength="145.5" x="414" y="380.0669">rebase(branch b)</text><polygon fill="#383838" points="420,426.8789,405,432.8789,420,438.8789,414,432.8789" style="stroke:#383838;stroke-width:1.5;"/><line style="stroke:#383838;stroke-width:1.5;stroke-dasharray:2.0,2.0;" x1="411" x2="639" y1="432.8789" y2="432.8789"/><text fill="#000000" font-family="sans-serif" font-size="19.5" lengthAdjust="spacing" textLength="67.5" x="429" y="425.5942">boolean</text><polygon fill="#383838" points="71.25,472.4063,56.25,478.4063,71.25,484.4063,65.25,478.4063" style="stroke:#383838;stroke-width:1.5;"/><line style="stroke:#383838;stroke-width:1.5;stroke-dasharray:2.0,2.0;" x1="62.25" x2="394.5" y1="478.4063" y2="478.4063"/><text fill="#000000" font-family="sans-serif" font-size="19.5" lengthAdjust="spacing" textLength="67.5" x="80.25" y="471.1216">boolean</text><!--MD5=[1f0c9ffa784099a74b325e8ebc3b6779]
@startuml
skinparam monochrome true
hide footbox
participant "p:Pull" as pull
participant "rebase:Rebase" as rebase
participant "facade:GitFacade" as git

create rebase
activate pull
pull -> rebase : <<create>> Rebase(a, b)
pull -> rebase : execute()
activate rebase
create git
rebase -> git : <<create>>
rebase -> git : checkout (a:GitBranch)
activate git
git - -> rebase : boolean
rebase -> git : rebase(branch b)
git - -> rebase : boolean
deactivate git
rebase - -> pull : boolean
deactivate rebase


@enduml

PlantUML version 1.2021.00(Sun Jan 10 11:25:05 CET 2021)
(GPL source distribution)
Java Runtime: OpenJDK Runtime Environment
JVM: OpenJDK 64-Bit Server VM
Default Encoding: Cp1252
Language: de
Country: DE
--></g></svg>