<?xml version="1.0" encoding="UTF-8" standalone="no"?><svg xmlns="http://www.w3.org/2000/svg" xmlns:xlink="http://www.w3.org/1999/xlink" contentScriptType="application/ecmascript" contentStyleType="text/css" height="1690.2px" preserveAspectRatio="none" style="width:1665px;height:1690px;" version="1.1" viewBox="0 0 1665 1690" width="1665.9px" zoomAndPan="magnify"><defs><filter height="300%" id="fieqwb821ug51" width="300%" x="-1" y="-1"><feGaussianBlur result="blurOut" stdDeviation="2.7"/><feColorMatrix in="blurOut" result="blurOut2" type="matrix" values="0 0 0 0 0 0 0 0 0 0 0 0 0 0 0 0 0 0 .4 0"/><feOffset dx="5.4" dy="5.4" in="blurOut2" result="blurOut3"/><feBlend in="SourceGraphic" in2="blurOut3" mode="normal"/></filter></defs><g><rect fill="#FFFFFF" filter="url(#fieqwb821ug51)" height="1479.1254" style="stroke:#383838;stroke-width:1.35;" width="13.5" x="234.9" y="178.1473"/><rect fill="#FFFFFF" filter="url(#fieqwb821ug51)" height="1221.9082" style="stroke:#383838;stroke-width:1.35;" width="13.5" x="478.575" y="290.4926"/><rect fill="#FFFFFF" filter="url(#fieqwb821ug51)" height="1036.0617" style="stroke:#383838;stroke-width:1.35;" width="13.5" x="760.725" y="476.3391"/><rect fill="#FFFFFF" filter="url(#fieqwb821ug51)" height="78.7746" style="stroke:#383838;stroke-width:1.35;" width="13.5" x="939.6" y="1165.7777"/><rect fill="#FFFFFF" filter="url(#fieqwb821ug51)" height="110.2992" style="stroke:#383838;stroke-width:1.35;" width="13.5" x="1093.5" y="951.5813"/><rect fill="#FFFFFF" filter="url(#fieqwb821ug51)" height="40.9746" style="stroke:#383838;stroke-width:1.35;" width="13.5" x="1346.625" y="772.4848"/><rect fill="#FFFFFF" filter="url(#fieqwb821ug51)" height="40.9746" style="stroke:#383838;stroke-width:1.35;" width="13.5" x="1530.225" y="1616.298"/><rect fill="#FFFFFF" filter="url(#fieqwb821ug51)" height="898.7625" style="stroke:#000000;stroke-width:2.7;" width="1075.275" x="345.6" y="596.0883"/><rect fill="#FFFFFF" filter="url(#fieqwb821ug51)" height="169.6465" style="stroke:#000000;stroke-width:2.7;" width="812.025" x="359.1" y="833.7094"/><line style="stroke:#383838;stroke-width:1.35;stroke-dasharray:5.0,5.0;" x1="29.7" x2="29.7" y1="120.9727" y2="1681.5727"/><line style="stroke:#383838;stroke-width:1.35;stroke-dasharray:5.0,5.0;" x1="241.65" x2="241.65" y1="179.434" y2="1681.5727"/><line style="stroke:#383838;stroke-width:1.35;stroke-dasharray:5.0,5.0;" x1="484.65" x2="484.65" y1="242.3566" y2="1681.5727"/><line style="stroke:#383838;stroke-width:1.35;stroke-dasharray:5.0,5.0;" x1="767.475" x2="767.475" y1="428.2031" y2="1681.5727"/><line style="stroke:#383838;stroke-width:1.35;stroke-dasharray:5.0,5.0;" x1="945.675" x2="945.675" y1="1117.6418" y2="1681.5727"/><line style="stroke:#383838;stroke-width:1.35;stroke-dasharray:5.0,5.0;" x1="1099.575" x2="1099.575" y1="903.4453" y2="1681.5727"/><line style="stroke:#383838;stroke-width:1.35;stroke-dasharray:5.0,5.0;" x1="1227.825" x2="1227.825" y1="120.9727" y2="1681.5727"/><line style="stroke:#383838;stroke-width:1.35;stroke-dasharray:5.0,5.0;" x1="1353.375" x2="1353.375" y1="724.3488" y2="1681.5727"/><line style="stroke:#383838;stroke-width:1.35;stroke-dasharray:5.0,5.0;" x1="1536.975" x2="1536.975" y1="1568.1621" y2="1681.5727"/><text fill="#000000" font-family="sans-serif" font-size="18.9" lengthAdjust="spacingAndGlyphs" textLength="37.8" x="6.75" y="116.8198">user</text><ellipse cx="29.7" cy="20.25" fill="#F8F8F8" filter="url(#fieqwb821ug51)" rx="10.8" ry="10.8" style="stroke:#383838;stroke-width:2.7;"/><path d="M29.7,31.05 L29.7,67.5 M12.15,41.85 L47.25,41.85 M29.7,67.5 L12.15,87.75 M29.7,67.5 L47.25,87.75 " fill="none" filter="url(#fieqwb821ug51)" style="stroke:#383838;stroke-width:2.7;"/><rect fill="#F8F8F8" filter="url(#fieqwb821ug51)" height="42.6727" style="stroke:#383838;stroke-width:2.0250000000000004;" width="109.35" x="1171.125" y="71.55"/><text fill="#000000" font-family="sans-serif" font-size="18.9" lengthAdjust="spacingAndGlyphs" textLength="90.45" x="1180.575" y="100.6198">settings.txt</text><rect fill="#FFFFFF" filter="url(#fieqwb821ug51)" height="1479.1254" style="stroke:#383838;stroke-width:1.35;" width="13.5" x="234.9" y="178.1473"/><rect fill="#FFFFFF" filter="url(#fieqwb821ug51)" height="1221.9082" style="stroke:#383838;stroke-width:1.35;" width="13.5" x="478.575" y="290.4926"/><rect fill="#FFFFFF" filter="url(#fieqwb821ug51)" height="1036.0617" style="stroke:#383838;stroke-width:1.35;" width="13.5" x="760.725" y="476.3391"/><rect fill="#FFFFFF" filter="url(#fieqwb821ug51)" height="78.7746" style="stroke:#383838;stroke-width:1.35;" width="13.5" x="939.6" y="1165.7777"/><rect fill="#FFFFFF" filter="url(#fieqwb821ug51)" height="110.2992" style="stroke:#383838;stroke-width:1.35;" width="13.5" x="1093.5" y="951.5813"/><rect fill="#FFFFFF" filter="url(#fieqwb821ug51)" height="40.9746" style="stroke:#383838;stroke-width:1.35;" width="13.5" x="1346.625" y="772.4848"/><rect fill="#FFFFFF" filter="url(#fieqwb821ug51)" height="40.9746" style="stroke:#383838;stroke-width:1.35;" width="13.5" x="1530.225" y="1616.298"/><polygon fill="#383838" points="149.85,159.2473,163.35,164.6473,149.85,170.0473,155.25,164.6473" style="stroke:#383838;stroke-width:1.35;"/><line style="stroke:#383838;stroke-width:1.35;" x1="29.7" x2="157.95" y1="164.6473" y2="164.6473"/><text fill="#000000" font-family="sans-serif" font-size="17.55" lengthAdjust="spacingAndGlyphs" textLength="103.95" x="39.15" y="158.0911">start program</text><rect fill="#F8F8F8" filter="url(#fieqwb821ug51)" height="42.6727" style="stroke:#383838;stroke-width:2.0250000000000004;" width="145.8" x="166.05" y="134.4727"/><text fill="#000000" font-family="sans-serif" font-size="18.9" lengthAdjust="spacingAndGlyphs" textLength="126.9" x="175.5" y="163.5425">mainStart:Main</text><polygon fill="#383838" points="356.4,222.1699,369.9,227.5699,356.4,232.9699,361.8,227.5699" style="stroke:#383838;stroke-width:1.35;"/><line style="stroke:#383838;stroke-width:1.35;stroke-dasharray:2.0,2.0;" x1="248.4" x2="364.5" y1="227.5699" y2="227.5699"/><text fill="#000000" font-family="sans-serif" font-size="17.55" lengthAdjust="spacingAndGlyphs" textLength="91.8" x="257.85" y="221.0137">&lt;&lt;create&gt;&gt;</text><rect fill="#F8F8F8" filter="url(#fieqwb821ug51)" height="42.6727" style="stroke:#383838;stroke-width:2.0250000000000004;" width="220.05" x="372.6" y="197.3953"/><text fill="#000000" font-family="sans-serif" font-size="18.9" lengthAdjust="spacingAndGlyphs" textLength="201.15" x="382.05" y="226.4651">persistency:Persistency</text><polygon fill="#383838" points="462.375,285.0926,475.875,290.4926,462.375,295.8926,467.775,290.4926" style="stroke:#383838;stroke-width:1.35;"/><line style="stroke:#383838;stroke-width:1.35;" x1="248.4" x2="470.475" y1="290.4926" y2="290.4926"/><text fill="#000000" font-family="sans-serif" font-size="17.55" lengthAdjust="spacingAndGlyphs" textLength="43.2" x="257.85" y="283.9364">load()</text><polygon fill="#383838" points="1212.3,326.0672,1225.8,331.4672,1212.3,336.8672,1217.7,331.4672" style="stroke:#383838;stroke-width:1.35;"/><line style="stroke:#383838;stroke-width:1.35;" x1="492.075" x2="1220.4" y1="331.4672" y2="331.4672"/><text fill="#000000" font-family="sans-serif" font-size="17.55" lengthAdjust="spacingAndGlyphs" textLength="60.75" x="501.525" y="324.911">read file</text><polygon fill="#383838" points="506.925,367.0418,493.425,372.4418,506.925,377.8418,501.525,372.4418" style="stroke:#383838;stroke-width:1.35;"/><line style="stroke:#383838;stroke-width:1.35;" x1="498.825" x2="1227.15" y1="372.4418" y2="372.4418"/><text fill="#000000" font-family="sans-serif" font-size="17.55" lengthAdjust="spacingAndGlyphs" textLength="85.05" x="515.025" y="365.8856">File handle</text><polygon fill="#383838" points="668.925,408.0164,682.425,413.4164,668.925,418.8164,674.325,413.4164" style="stroke:#383838;stroke-width:1.35;"/><line style="stroke:#383838;stroke-width:1.35;stroke-dasharray:2.0,2.0;" x1="492.075" x2="677.025" y1="413.4164" y2="413.4164"/><text fill="#000000" font-family="sans-serif" font-size="17.55" lengthAdjust="spacingAndGlyphs" textLength="91.8" x="501.525" y="406.8602">&lt;&lt;create&gt;&gt;</text><rect fill="#F8F8F8" filter="url(#fieqwb821ug51)" height="42.6727" style="stroke:#383838;stroke-width:2.0250000000000004;" width="159.3" x="685.125" y="383.2418"/><text fill="#000000" font-family="sans-serif" font-size="18.9" lengthAdjust="spacingAndGlyphs" textLength="140.4" x="694.575" y="412.3116">settings:Settings</text><polygon fill="#383838" points="744.525,470.9391,758.025,476.3391,744.525,481.7391,749.925,476.3391" style="stroke:#383838;stroke-width:1.35;"/><line style="stroke:#383838;stroke-width:1.35;" x1="492.075" x2="752.625" y1="476.3391" y2="476.3391"/><text fill="#000000" font-family="sans-serif" font-size="17.55" lengthAdjust="spacingAndGlyphs" textLength="101.25" x="501.525" y="469.7829">getInstance()</text><line style="stroke:#383838;stroke-width:1.35;" x1="774.225" x2="830.925" y1="517.3137" y2="517.3137"/><line style="stroke:#383838;stroke-width:1.35;" x1="830.925" x2="830.925" y1="517.3137" y2="534.8637"/><line style="stroke:#383838;stroke-width:1.35;" x1="775.575" x2="830.925" y1="534.8637" y2="534.8637"/><polygon fill="#383838" points="789.075,529.4637,775.575,534.8637,789.075,540.2637,783.675,534.8637" style="stroke:#383838;stroke-width:1.35;"/><text fill="#000000" font-family="sans-serif" font-size="17.55" lengthAdjust="spacingAndGlyphs" textLength="112.05" x="783.675" y="510.7575">new Settings()</text><polygon fill="#383838" points="506.925,570.4383,493.425,575.8383,506.925,581.2383,501.525,575.8383" style="stroke:#383838;stroke-width:1.35;"/><line style="stroke:#383838;stroke-width:1.35;stroke-dasharray:2.0,2.0;" x1="498.825" x2="759.375" y1="575.8383" y2="575.8383"/><text fill="#000000" font-family="sans-serif" font-size="17.55" lengthAdjust="spacingAndGlyphs" textLength="132.3" x="515.025" y="569.2821">settings:Settings</text><path d="M345.6,596.0883 L427.95,596.0883 L427.95,606.8883 L414.45,620.3883 L345.6,620.3883 L345.6,596.0883 " fill="#EEEEEE" style="stroke:#000000;stroke-width:1.35;"/><rect fill="none" height="898.7625" style="stroke:#000000;stroke-width:2.7;" width="1075.275" x="345.6" y="596.0883"/><text fill="#000000" font-family="sans-serif" font-size="17.55" font-weight="bold" lengthAdjust="spacingAndGlyphs" textLength="21.6" x="365.85" y="615.6567">alt</text><text fill="#000000" font-family="sans-serif" font-size="14.85" font-weight="bold" lengthAdjust="spacingAndGlyphs" textLength="120.15" x="448.2" y="614.2039">[settings found]</text><line style="stroke:#383838;stroke-width:1.35;" x1="492.075" x2="548.775" y1="651.0375" y2="651.0375"/><line style="stroke:#383838;stroke-width:1.35;" x1="548.775" x2="548.775" y1="651.0375" y2="668.5875"/><line style="stroke:#383838;stroke-width:1.35;" x1="493.425" x2="548.775" y1="668.5875" y2="668.5875"/><polygon fill="#383838" points="506.925,663.1875,493.425,668.5875,506.925,673.9875,501.525,668.5875" style="stroke:#383838;stroke-width:1.35;"/><text fill="#000000" font-family="sans-serif" font-size="17.55" lengthAdjust="spacingAndGlyphs" textLength="129.6" x="501.525" y="644.4813">restoreSettings()</text><polygon fill="#383838" points="1283.175,704.1621,1296.675,709.5621,1283.175,714.9621,1288.575,709.5621" style="stroke:#383838;stroke-width:1.35;"/><line style="stroke:#383838;stroke-width:1.35;stroke-dasharray:2.0,2.0;" x1="492.075" x2="1291.275" y1="709.5621" y2="709.5621"/><text fill="#000000" font-family="sans-serif" font-size="17.55" lengthAdjust="spacingAndGlyphs" textLength="91.8" x="501.525" y="703.0059">&lt;&lt;create&gt;&gt;</text><rect fill="#F8F8F8" filter="url(#fieqwb821ug51)" height="42.6727" style="stroke:#383838;stroke-width:2.0250000000000004;" width="102.6" x="1299.375" y="679.3875"/><text fill="#000000" font-family="sans-serif" font-size="18.9" lengthAdjust="spacingAndGlyphs" textLength="83.7" x="1308.825" y="708.4573">data:Data</text><polygon fill="#383838" points="1330.425,767.0848,1343.925,772.4848,1330.425,777.8848,1335.825,772.4848" style="stroke:#383838;stroke-width:1.35;"/><line style="stroke:#383838;stroke-width:1.35;" x1="492.075" x2="1338.525" y1="772.4848" y2="772.4848"/><text fill="#000000" font-family="sans-serif" font-size="17.55" lengthAdjust="spacingAndGlyphs" textLength="83.7" x="501.525" y="765.9286">getLevels()</text><polygon fill="#383838" points="506.925,808.0594,493.425,813.4594,506.925,818.8594,501.525,813.4594" style="stroke:#383838;stroke-width:1.35;"/><line style="stroke:#383838;stroke-width:1.35;stroke-dasharray:2.0,2.0;" x1="498.825" x2="1352.025" y1="813.4594" y2="813.4594"/><text fill="#000000" font-family="sans-serif" font-size="17.55" lengthAdjust="spacingAndGlyphs" textLength="137.7" x="515.025" y="806.9032">levels:List&lt;Level&gt;</text><path d="M359.1,833.7094 L457.65,833.7094 L457.65,844.5094 L444.15,858.0094 L359.1,858.0094 L359.1,833.7094 " fill="#EEEEEE" style="stroke:#000000;stroke-width:1.35;"/><rect fill="none" height="169.6465" style="stroke:#000000;stroke-width:2.7;" width="812.025" x="359.1" y="833.7094"/><text fill="#000000" font-family="sans-serif" font-size="17.55" font-weight="bold" lengthAdjust="spacingAndGlyphs" textLength="37.8" x="379.35" y="853.2778">loop</text><text fill="#000000" font-family="sans-serif" font-size="14.85" font-weight="bold" lengthAdjust="spacingAndGlyphs" textLength="94.5" x="477.9" y="851.825">[level:levels]</text><polygon fill="#383838" points="1026.675,883.2586,1040.175,888.6586,1026.675,894.0586,1032.075,888.6586" style="stroke:#383838;stroke-width:1.35;"/><line style="stroke:#383838;stroke-width:1.35;stroke-dasharray:2.0,2.0;" x1="492.075" x2="1034.775" y1="888.6586" y2="888.6586"/><text fill="#000000" font-family="sans-serif" font-size="17.55" lengthAdjust="spacingAndGlyphs" textLength="91.8" x="501.525" y="882.1024">&lt;&lt;create&gt;&gt;</text><rect fill="#F8F8F8" filter="url(#fieqwb821ug51)" height="42.6727" style="stroke:#383838;stroke-width:2.0250000000000004;" width="109.35" x="1042.875" y="858.484"/><text fill="#000000" font-family="sans-serif" font-size="18.9" lengthAdjust="spacingAndGlyphs" textLength="90.45" x="1052.325" y="887.5538">level:Level</text><polygon fill="#383838" points="1077.3,946.1813,1090.8,951.5813,1077.3,956.9813,1082.7,951.5813" style="stroke:#383838;stroke-width:1.35;"/><line style="stroke:#383838;stroke-width:1.35;" x1="492.075" x2="1085.4" y1="951.5813" y2="951.5813"/><text fill="#000000" font-family="sans-serif" font-size="17.55" lengthAdjust="spacingAndGlyphs" textLength="120.15" x="501.525" y="945.025">getLevelName()</text><polygon fill="#383838" points="506.925,987.1559,493.425,992.5559,506.925,997.9559,501.525,992.5559" style="stroke:#383838;stroke-width:1.35;"/><line style="stroke:#383838;stroke-width:1.35;stroke-dasharray:2.0,2.0;" x1="498.825" x2="1092.15" y1="992.5559" y2="992.5559"/><text fill="#000000" font-family="sans-serif" font-size="17.55" lengthAdjust="spacingAndGlyphs" textLength="94.5" x="515.025" y="985.9997">name:String</text><polygon fill="#383838" points="744.525,1037.5805,758.025,1042.9805,744.525,1048.3805,749.925,1042.9805" style="stroke:#383838;stroke-width:1.35;"/><line style="stroke:#383838;stroke-width:1.35;" x1="492.075" x2="752.625" y1="1042.9805" y2="1042.9805"/><text fill="#000000" font-family="sans-serif" font-size="17.55" lengthAdjust="spacingAndGlyphs" textLength="113.4" x="501.525" y="1036.4243">setLevel (level)</text><polygon fill="#383838" points="506.925,1056.4805,493.425,1061.8805,506.925,1067.2805,501.525,1061.8805" style="stroke:#383838;stroke-width:1.35;"/><line style="stroke:#383838;stroke-width:1.35;stroke-dasharray:2.0,2.0;" x1="498.825" x2="759.375" y1="1061.8805" y2="1061.8805"/><polygon fill="#383838" points="847.125,1097.4551,860.625,1102.8551,847.125,1108.2551,852.525,1102.8551" style="stroke:#383838;stroke-width:1.35;"/><line style="stroke:#383838;stroke-width:1.35;stroke-dasharray:2.0,2.0;" x1="492.075" x2="855.225" y1="1102.8551" y2="1102.8551"/><text fill="#000000" font-family="sans-serif" font-size="17.55" lengthAdjust="spacingAndGlyphs" textLength="91.8" x="501.525" y="1096.2989">&lt;&lt;create&gt;&gt;</text><rect fill="#F8F8F8" filter="url(#fieqwb821ug51)" height="42.6727" style="stroke:#383838;stroke-width:2.0250000000000004;" width="160.65" x="863.325" y="1072.6805"/><text fill="#000000" font-family="sans-serif" font-size="18.9" lengthAdjust="spacingAndGlyphs" textLength="141.75" x="872.775" y="1101.7503">author:GitAuthor</text><polygon fill="#383838" points="923.4,1160.3777,936.9,1165.7777,923.4,1171.1777,928.8,1165.7777" style="stroke:#383838;stroke-width:1.35;"/><line style="stroke:#383838;stroke-width:1.35;" x1="492.075" x2="931.5" y1="1165.7777" y2="1165.7777"/><text fill="#000000" font-family="sans-serif" font-size="17.55" lengthAdjust="spacingAndGlyphs" textLength="124.2" x="501.525" y="1159.2215">setName(name)</text><polygon fill="#383838" points="506.925,1179.2777,493.425,1184.6777,506.925,1190.0777,501.525,1184.6777" style="stroke:#383838;stroke-width:1.35;"/><line style="stroke:#383838;stroke-width:1.35;stroke-dasharray:2.0,2.0;" x1="498.825" x2="938.25" y1="1184.6777" y2="1184.6777"/><polygon fill="#383838" points="923.4,1220.2523,936.9,1225.6523,923.4,1231.0523,928.8,1225.6523" style="stroke:#383838;stroke-width:1.35;"/><line style="stroke:#383838;stroke-width:1.35;" x1="492.075" x2="931.5" y1="1225.6523" y2="1225.6523"/><text fill="#000000" font-family="sans-serif" font-size="17.55" lengthAdjust="spacingAndGlyphs" textLength="112.05" x="501.525" y="1219.0961">setEmail(mail)</text><polygon fill="#383838" points="506.925,1239.1523,493.425,1244.5523,506.925,1249.9523,501.525,1244.5523" style="stroke:#383838;stroke-width:1.35;"/><line style="stroke:#383838;stroke-width:1.35;stroke-dasharray:2.0,2.0;" x1="498.825" x2="945" y1="1244.5523" y2="1244.5523"/><polygon fill="#383838" points="744.525,1280.127,758.025,1285.527,744.525,1290.927,749.925,1285.527" style="stroke:#383838;stroke-width:1.35;"/><line style="stroke:#383838;stroke-width:1.35;" x1="492.075" x2="752.625" y1="1285.527" y2="1285.527"/><text fill="#000000" font-family="sans-serif" font-size="17.55" lengthAdjust="spacingAndGlyphs" textLength="135" x="501.525" y="1278.9708">setAuthor(author)</text><polygon fill="#383838" points="506.925,1299.027,493.425,1304.427,506.925,1309.827,501.525,1304.427" style="stroke:#383838;stroke-width:1.35;"/><line style="stroke:#383838;stroke-width:1.35;stroke-dasharray:2.0,2.0;" x1="498.825" x2="759.375" y1="1304.427" y2="1304.427"/><polygon fill="#383838" points="744.525,1340.0016,758.025,1345.4016,744.525,1350.8016,749.925,1345.4016" style="stroke:#383838;stroke-width:1.35;"/><line style="stroke:#383838;stroke-width:1.35;" x1="492.075" x2="752.625" y1="1345.4016" y2="1345.4016"/><text fill="#000000" font-family="sans-serif" font-size="17.55" lengthAdjust="spacingAndGlyphs" textLength="187.65" x="501.525" y="1338.8454">setUseTooltips(boolean)</text><polygon fill="#383838" points="506.925,1358.9016,493.425,1364.3016,506.925,1369.7016,501.525,1364.3016" style="stroke:#383838;stroke-width:1.35;"/><line style="stroke:#383838;stroke-width:1.35;stroke-dasharray:2.0,2.0;" x1="498.825" x2="759.375" y1="1364.3016" y2="1364.3016"/><polygon fill="#383838" points="744.525,1399.8762,758.025,1405.2762,744.525,1410.6762,749.925,1405.2762" style="stroke:#383838;stroke-width:1.35;"/><line style="stroke:#383838;stroke-width:1.35;" x1="492.075" x2="752.625" y1="1405.2762" y2="1405.2762"/><text fill="#000000" font-family="sans-serif" font-size="17.55" lengthAdjust="spacingAndGlyphs" textLength="139.05" x="501.525" y="1398.72">setShowTreeView</text><polygon fill="#383838" points="506.925,1418.7762,493.425,1424.1762,506.925,1429.5762,501.525,1424.1762" style="stroke:#383838;stroke-width:1.35;"/><line style="stroke:#383838;stroke-width:1.35;stroke-dasharray:2.0,2.0;" x1="498.825" x2="759.375" y1="1424.1762" y2="1424.1762"/><polygon fill="#383838" points="744.525,1459.7508,758.025,1465.1508,744.525,1470.5508,749.925,1465.1508" style="stroke:#383838;stroke-width:1.35;"/><line style="stroke:#383838;stroke-width:1.35;" x1="492.075" x2="752.625" y1="1465.1508" y2="1465.1508"/><text fill="#000000" font-family="sans-serif" font-size="17.55" lengthAdjust="spacingAndGlyphs" textLength="236.25" x="501.525" y="1458.5946">setActiveRepositoryPath(path)</text><polygon fill="#383838" points="506.925,1478.6508,493.425,1484.0508,506.925,1489.4508,501.525,1484.0508" style="stroke:#383838;stroke-width:1.35;"/><line style="stroke:#383838;stroke-width:1.35;" x1="498.825" x2="759.375" y1="1484.0508" y2="1484.0508"/><polygon fill="#383838" points="263.25,1507.0008,249.75,1512.4008,263.25,1517.8008,257.85,1512.4008" style="stroke:#383838;stroke-width:1.35;"/><line style="stroke:#383838;stroke-width:1.35;stroke-dasharray:2.0,2.0;" x1="255.15" x2="483.975" y1="1512.4008" y2="1512.4008"/><polygon fill="#383838" points="1404.675,1547.9754,1418.175,1553.3754,1404.675,1558.7754,1410.075,1553.3754" style="stroke:#383838;stroke-width:1.35;"/><line style="stroke:#383838;stroke-width:1.35;stroke-dasharray:2.0,2.0;" x1="248.4" x2="1412.775" y1="1553.3754" y2="1553.3754"/><text fill="#000000" font-family="sans-serif" font-size="17.55" lengthAdjust="spacingAndGlyphs" textLength="91.8" x="257.85" y="1546.8192">&lt;&lt;create&gt;&gt;</text><rect fill="#F8F8F8" filter="url(#fieqwb821ug51)" height="42.6727" style="stroke:#383838;stroke-width:2.0250000000000004;" width="226.8" x="1420.875" y="1523.2008"/><text fill="#000000" font-family="sans-serif" font-size="18.9" lengthAdjust="spacingAndGlyphs" textLength="207.9" x="1430.325" y="1552.2706">maiWindow:MainWindow</text><polygon fill="#383838" points="1514.025,1610.898,1527.525,1616.298,1514.025,1621.698,1519.425,1616.298" style="stroke:#383838;stroke-width:1.35;"/><line style="stroke:#383838;stroke-width:1.35;" x1="248.4" x2="1522.125" y1="1616.298" y2="1616.298"/><text fill="#000000" font-family="sans-serif" font-size="17.55" lengthAdjust="spacingAndGlyphs" textLength="72.9" x="257.85" y="1609.7418">getView()</text><polygon fill="#383838" points="256.5,1651.8727,243,1657.2727,256.5,1662.6727,251.1,1657.2727" style="stroke:#383838;stroke-width:1.35;"/><line style="stroke:#383838;stroke-width:1.35;stroke-dasharray:2.0,2.0;" x1="248.4" x2="1535.625" y1="1657.2727" y2="1657.2727"/><text fill="#000000" font-family="sans-serif" font-size="17.55" lengthAdjust="spacingAndGlyphs" textLength="48.6" x="264.6" y="1650.7165">jPanel</text><!--MD5=[9ce8d5cdb87c63c04cf3a2babf9ae512]
@startuml
skinparam monochrome true
hide footbox

actor user
participant "mainStart:Main" as main
participant "persistency:Persistency" as persistency
participant "settings:Settings" as settings
participant "author:GitAuthor" as author
participant "level:Level" as level
participant "settings.txt" as settingstext
participant "data:Data" as data
participant "maiWindow:MainWindow" as mainWindow

create main
user -> main : start program
activate main
create persistency
main - -> persistency : <<create>>

main -> persistency : load()
activate persistency
persistency -> settingstext : read file
settingstext -> persistency : File handle

create settings
persistency - -> settings : <<create>>
persistency -> settings : getInstance()
activate settings
settings -> settings : new Settings()
settings - -> persistency : settings:Settings

alt settings found

persistency -> persistency : restoreSettings()

create data
persistency - -> data : <<create>>

persistency -> data : getLevels()
activate data
data - -> persistency : levels:List<Level>
deactivate data

loop level:levels
create level
persistency - -> level : <<create>>
persistency -> level : getLevelName()
activate level
level - -> persistency : name:String
end

persistency -> settings : setLevel (level)
settings - -> persistency
deactivate level

create author
persistency - -> author : <<create>>
persistency -> author : setName(name)
activate author
author - -> persistency
persistency -> author : setEmail(mail)
author - -> persistency
deactivate author

persistency -> settings : setAuthor(author)
settings - -> persistency

persistency -> settings : setUseTooltips(boolean)
settings - -> persistency

persistency -> settings : setShowTreeView
settings - -> persistency

persistency -> settings : setActiveRepositoryPath(path)
settings -> persistency



end

persistency - -> main
deactivate persistency
deactivate settings
create mainWindow
main - -> mainWindow : <<create>>
main -> mainWindow : getView()
activate mainWindow
mainWindow - -> main : jPanel
deactivate mainWindow
deactivate main


@enduml

PlantUML version 1.2020.23(Sun Dec 13 20:14:58 CET 2020)
(GPL source distribution)
Java Runtime: OpenJDK Runtime Environment
JVM: OpenJDK 64-Bit Server VM
Default Encoding: Cp1252
Language: de
Country: DE
--></g></svg>