<?xml version="1.0" encoding="UTF-8" standalone="no"?><svg xmlns="http://www.w3.org/2000/svg" xmlns:xlink="http://www.w3.org/1999/xlink" contentScriptType="application/ecmascript" contentStyleType="text/css" height="2653.5px" preserveAspectRatio="none" style="width:2362px;height:2653px;" version="1.1" viewBox="0 0 2362 2653" width="2362.5px" zoomAndPan="magnify"><defs><filter height="300%" id="fbs2bzn6s4og5" width="300%" x="-1" y="-1"><feGaussianBlur result="blurOut" stdDeviation="3.0"/><feColorMatrix in="blurOut" result="blurOut2" type="matrix" values="0 0 0 0 0 0 0 0 0 0 0 0 0 0 0 0 0 0 .4 0"/><feOffset dx="6.0" dy="6.0" in="blurOut2" result="blurOut3"/><feBlend in="SourceGraphic" in2="blurOut3" mode="normal"/></filter></defs><g><rect fill="#FFFFFF" filter="url(#fbs2bzn6s4og5)" height="2418.6094" style="stroke:#383838;stroke-width:1.5;" width="15" x="261" y="197.9414"/><rect fill="#FFFFFF" filter="url(#fbs2bzn6s4og5)" height="911.8242" style="stroke:#383838;stroke-width:1.5;" width="15" x="522.75" y="1718.2266"/><rect fill="#FFFFFF" filter="url(#fbs2bzn6s4og5)" height="2132.8125" style="stroke:#383838;stroke-width:1.5;" width="15" x="831" y="322.7695"/><rect fill="#FFFFFF" filter="url(#fbs2bzn6s4og5)" height="1926.3164" style="stroke:#383838;stroke-width:1.5;" width="15" x="1144.5" y="529.2656"/><rect fill="#FFFFFF" filter="url(#fbs2bzn6s4og5)" height="87.5273" style="stroke:#383838;stroke-width:1.5;" width="15" x="1343.25" y="1225.3945"/><rect fill="#FFFFFF" filter="url(#fbs2bzn6s4og5)" height="122.5547" style="stroke:#383838;stroke-width:1.5;" width="15" x="1514.25" y="987.3984"/><rect fill="#FFFFFF" filter="url(#fbs2bzn6s4og5)" height="45.5273" style="stroke:#383838;stroke-width:1.5;" width="15" x="1795.5" y="858.3164"/><rect fill="#FFFFFF" filter="url(#fbs2bzn6s4og5)" height="45.5273" style="stroke:#383838;stroke-width:1.5;" width="15" x="1968.75" y="2232.2461"/><rect fill="#FFFFFF" filter="url(#fbs2bzn6s4og5)" height="45.5273" style="stroke:#383838;stroke-width:1.5;" width="15" x="1968.75" y="2347.0547"/><rect fill="#FFFFFF" filter="url(#fbs2bzn6s4og5)" height="45.5273" style="stroke:#383838;stroke-width:1.5;" width="15" x="2211" y="2571.0234"/><rect fill="#FFFFFF" filter="url(#fbs2bzn6s4og5)" height="1752.7617" style="stroke:#000000;stroke-width:3.0;" width="1752" x="352.5" y="662.3203"/><rect fill="#FFFFFF" filter="url(#fbs2bzn6s4og5)" height="118.582" style="stroke:#000000;stroke-width:3.0;" width="902.25" x="698.25" y="926.3438"/><rect fill="#FFFFFF" height="824.0508" style="stroke:none;stroke-width:1.5;" width="1752" x="352.5" y="1591.0313"/><rect fill="#FFFFFF" filter="url(#fbs2bzn6s4og5)" height="303.3047" style="stroke:#000000;stroke-width:3.0;" width="1044" x="1045.5" y="2101.2773"/><rect fill="#FFFFFF" height="114.8086" style="stroke:none;stroke-width:1.5;" width="1044" x="1045.5" y="2289.7734"/><line style="stroke:#383838;stroke-width:1.5;stroke-dasharray:5.0,5.0;" x1="33" x2="33" y1="134.4141" y2="2643.5508"/><line style="stroke:#383838;stroke-width:1.5;stroke-dasharray:5.0,5.0;" x1="268.5" x2="268.5" y1="199.3711" y2="2643.5508"/><line style="stroke:#383838;stroke-width:1.5;stroke-dasharray:5.0,5.0;" x1="529.5" x2="529.5" y1="1664.7422" y2="2643.5508"/><line style="stroke:#383838;stroke-width:1.5;stroke-dasharray:5.0,5.0;" x1="837.75" x2="837.75" y1="269.2852" y2="2643.5508"/><line style="stroke:#383838;stroke-width:1.5;stroke-dasharray:5.0,5.0;" x1="1152" x2="1152" y1="475.7813" y2="2643.5508"/><line style="stroke:#383838;stroke-width:1.5;stroke-dasharray:5.0,5.0;" x1="1350" x2="1350" y1="1825.7109" y2="2643.5508"/><line style="stroke:#383838;stroke-width:1.5;stroke-dasharray:5.0,5.0;" x1="1521" x2="1521" y1="134.4141" y2="2643.5508"/><line style="stroke:#383838;stroke-width:1.5;stroke-dasharray:5.0,5.0;" x1="1663.5" x2="1663.5" y1="134.4141" y2="2643.5508"/><line style="stroke:#383838;stroke-width:1.5;stroke-dasharray:5.0,5.0;" x1="1803" x2="1803" y1="804.832" y2="2643.5508"/><line style="stroke:#383838;stroke-width:1.5;stroke-dasharray:5.0,5.0;" x1="1975.5" x2="1975.5" y1="2178.7617" y2="2643.5508"/><line style="stroke:#383838;stroke-width:1.5;stroke-dasharray:5.0,5.0;" x1="2218.5" x2="2218.5" y1="2517.5391" y2="2643.5508"/><text fill="#000000" font-family="sans-serif" font-size="21" lengthAdjust="spacing" textLength="42" x="7.5" y="129.7998">user</text><ellipse cx="33" cy="22.5" fill="#F8F8F8" filter="url(#fbs2bzn6s4og5)" rx="12" ry="12" style="stroke:#383838;stroke-width:3.0;"/><path d="M33,34.5 L33,75 M13.5,46.5 L52.5,46.5 M33,75 L13.5,97.5 M33,75 L52.5,97.5 " fill="none" filter="url(#fbs2bzn6s4og5)" style="stroke:#383838;stroke-width:3.0;"/><rect fill="#F8F8F8" filter="url(#fbs2bzn6s4og5)" height="47.4141" style="stroke:#383838;stroke-width:2.25;" width="121.5" x="1458" y="79.5"/><text fill="#000000" font-family="sans-serif" font-size="21" lengthAdjust="spacing" textLength="100.5" x="1468.5" y="111.7998">level:Level</text><rect fill="#F8F8F8" filter="url(#fbs2bzn6s4og5)" height="47.4141" style="stroke:#383838;stroke-width:2.25;" width="121.5" x="1600.5" y="79.5"/><text fill="#000000" font-family="sans-serif" font-size="21" lengthAdjust="spacing" textLength="100.5" x="1611" y="111.7998">settings.txt</text><rect fill="#FFFFFF" filter="url(#fbs2bzn6s4og5)" height="2418.6094" style="stroke:#383838;stroke-width:1.5;" width="15" x="261" y="197.9414"/><rect fill="#FFFFFF" filter="url(#fbs2bzn6s4og5)" height="911.8242" style="stroke:#383838;stroke-width:1.5;" width="15" x="522.75" y="1718.2266"/><rect fill="#FFFFFF" filter="url(#fbs2bzn6s4og5)" height="2132.8125" style="stroke:#383838;stroke-width:1.5;" width="15" x="831" y="322.7695"/><rect fill="#FFFFFF" filter="url(#fbs2bzn6s4og5)" height="1926.3164" style="stroke:#383838;stroke-width:1.5;" width="15" x="1144.5" y="529.2656"/><rect fill="#FFFFFF" filter="url(#fbs2bzn6s4og5)" height="87.5273" style="stroke:#383838;stroke-width:1.5;" width="15" x="1343.25" y="1225.3945"/><rect fill="#FFFFFF" filter="url(#fbs2bzn6s4og5)" height="122.5547" style="stroke:#383838;stroke-width:1.5;" width="15" x="1514.25" y="987.3984"/><rect fill="#FFFFFF" filter="url(#fbs2bzn6s4og5)" height="45.5273" style="stroke:#383838;stroke-width:1.5;" width="15" x="1795.5" y="858.3164"/><rect fill="#FFFFFF" filter="url(#fbs2bzn6s4og5)" height="45.5273" style="stroke:#383838;stroke-width:1.5;" width="15" x="1968.75" y="2232.2461"/><rect fill="#FFFFFF" filter="url(#fbs2bzn6s4og5)" height="45.5273" style="stroke:#383838;stroke-width:1.5;" width="15" x="1968.75" y="2347.0547"/><rect fill="#FFFFFF" filter="url(#fbs2bzn6s4og5)" height="45.5273" style="stroke:#383838;stroke-width:1.5;" width="15" x="2211" y="2571.0234"/><polygon fill="#383838" points="166.5,176.9414,181.5,182.9414,166.5,188.9414,172.5,182.9414" style="stroke:#383838;stroke-width:1.5;"/><line style="stroke:#383838;stroke-width:1.5;" x1="33" x2="175.5" y1="182.9414" y2="182.9414"/><text fill="#000000" font-family="sans-serif" font-size="19.5" lengthAdjust="spacing" textLength="115.5" x="43.5" y="175.6567">start program</text><rect fill="#F8F8F8" filter="url(#fbs2bzn6s4og5)" height="47.4141" style="stroke:#383838;stroke-width:2.25;" width="162" x="184.5" y="149.4141"/><text fill="#000000" font-family="sans-serif" font-size="21" lengthAdjust="spacing" textLength="141" x="195" y="181.7139">mainStart:Main</text><polygon fill="#383838" points="695.25,246.8555,710.25,252.8555,695.25,258.8555,701.25,252.8555" style="stroke:#383838;stroke-width:1.5;"/><line style="stroke:#383838;stroke-width:1.5;stroke-dasharray:2.0,2.0;" x1="276" x2="704.25" y1="252.8555" y2="252.8555"/><text fill="#000000" font-family="sans-serif" font-size="19.5" lengthAdjust="spacing" textLength="102" x="286.5" y="245.5708">&lt;&lt;create&gt;&gt;</text><rect fill="#F8F8F8" filter="url(#fbs2bzn6s4og5)" height="47.4141" style="stroke:#383838;stroke-width:2.25;" width="244.5" x="713.25" y="219.3281"/><text fill="#000000" font-family="sans-serif" font-size="21" lengthAdjust="spacing" textLength="223.5" x="723.75" y="251.6279">persistency:Persistency</text><polygon fill="#383838" points="813,316.7695,828,322.7695,813,328.7695,819,322.7695" style="stroke:#383838;stroke-width:1.5;"/><line style="stroke:#383838;stroke-width:1.5;" x1="276" x2="822" y1="322.7695" y2="322.7695"/><text fill="#000000" font-family="sans-serif" font-size="19.5" lengthAdjust="spacing" textLength="48" x="286.5" y="315.4849">load()</text><polygon fill="#383838" points="1646.25,362.2969,1661.25,368.2969,1646.25,374.2969,1652.25,368.2969" style="stroke:#383838;stroke-width:1.5;"/><line style="stroke:#383838;stroke-width:1.5;" x1="846" x2="1655.25" y1="368.2969" y2="368.2969"/><text fill="#000000" font-family="sans-serif" font-size="19.5" lengthAdjust="spacing" textLength="67.5" x="856.5" y="361.0122">read file</text><polygon fill="#383838" points="862.5,407.8242,847.5,413.8242,862.5,419.8242,856.5,413.8242" style="stroke:#383838;stroke-width:1.5;"/><line style="stroke:#383838;stroke-width:1.5;" x1="853.5" x2="1662.75" y1="413.8242" y2="413.8242"/><text fill="#000000" font-family="sans-serif" font-size="19.5" lengthAdjust="spacing" textLength="94.5" x="871.5" y="406.5396">File handle</text><polygon fill="#383838" points="1042.5,453.3516,1057.5,459.3516,1042.5,465.3516,1048.5,459.3516" style="stroke:#383838;stroke-width:1.5;"/><line style="stroke:#383838;stroke-width:1.5;stroke-dasharray:2.0,2.0;" x1="846" x2="1051.5" y1="459.3516" y2="459.3516"/><text fill="#000000" font-family="sans-serif" font-size="19.5" lengthAdjust="spacing" textLength="102" x="856.5" y="452.0669">&lt;&lt;create&gt;&gt;</text><rect fill="#F8F8F8" filter="url(#fbs2bzn6s4og5)" height="47.4141" style="stroke:#383838;stroke-width:2.25;" width="177" x="1060.5" y="425.8242"/><text fill="#000000" font-family="sans-serif" font-size="21" lengthAdjust="spacing" textLength="156" x="1071" y="458.124">settings:Settings</text><polygon fill="#383838" points="1126.5,523.2656,1141.5,529.2656,1126.5,535.2656,1132.5,529.2656" style="stroke:#383838;stroke-width:1.5;"/><line style="stroke:#383838;stroke-width:1.5;" x1="846" x2="1135.5" y1="529.2656" y2="529.2656"/><text fill="#000000" font-family="sans-serif" font-size="19.5" lengthAdjust="spacing" textLength="112.5" x="856.5" y="521.981">getInstance()</text><line style="stroke:#383838;stroke-width:1.5;" x1="1159.5" x2="1222.5" y1="574.793" y2="574.793"/><line style="stroke:#383838;stroke-width:1.5;" x1="1222.5" x2="1222.5" y1="574.793" y2="594.293"/><line style="stroke:#383838;stroke-width:1.5;" x1="1161" x2="1222.5" y1="594.293" y2="594.293"/><polygon fill="#383838" points="1176,588.293,1161,594.293,1176,600.293,1170,594.293" style="stroke:#383838;stroke-width:1.5;"/><text fill="#000000" font-family="sans-serif" font-size="19.5" lengthAdjust="spacing" textLength="124.5" x="1170" y="567.5083">new Settings()</text><polygon fill="#383838" points="862.5,633.8203,847.5,639.8203,862.5,645.8203,856.5,639.8203" style="stroke:#383838;stroke-width:1.5;"/><line style="stroke:#383838;stroke-width:1.5;stroke-dasharray:2.0,2.0;" x1="853.5" x2="1143" y1="639.8203" y2="639.8203"/><text fill="#000000" font-family="sans-serif" font-size="19.5" lengthAdjust="spacing" textLength="147" x="871.5" y="632.5356">settings:Settings</text><path d="M352.5,662.3203 L444,662.3203 L444,674.3203 L429,689.3203 L352.5,689.3203 L352.5,662.3203 " fill="#EEEEEE" style="stroke:#000000;stroke-width:1.5;"/><rect fill="none" height="1752.7617" style="stroke:#000000;stroke-width:3.0;" width="1752" x="352.5" y="662.3203"/><text fill="#000000" font-family="sans-serif" font-size="19.5" font-weight="bold" lengthAdjust="spacing" textLength="24" x="375" y="684.063">alt</text><text fill="#000000" font-family="sans-serif" font-size="16.5" font-weight="bold" lengthAdjust="spacing" textLength="208.5" x="466.5" y="682.4487">[Einstellungen gefunden]</text><line style="stroke:#383838;stroke-width:1.5;" x1="846" x2="909" y1="723.375" y2="723.375"/><line style="stroke:#383838;stroke-width:1.5;" x1="909" x2="909" y1="723.375" y2="742.875"/><line style="stroke:#383838;stroke-width:1.5;" x1="847.5" x2="909" y1="742.875" y2="742.875"/><polygon fill="#383838" points="862.5,736.875,847.5,742.875,862.5,748.875,856.5,742.875" style="stroke:#383838;stroke-width:1.5;"/><text fill="#000000" font-family="sans-serif" font-size="19.5" lengthAdjust="spacing" textLength="144" x="856.5" y="716.0903">restoreSettings()</text><polygon fill="#383838" points="1725,782.4023,1740,788.4023,1725,794.4023,1731,788.4023" style="stroke:#383838;stroke-width:1.5;"/><line style="stroke:#383838;stroke-width:1.5;stroke-dasharray:2.0,2.0;" x1="846" x2="1734" y1="788.4023" y2="788.4023"/><text fill="#000000" font-family="sans-serif" font-size="19.5" lengthAdjust="spacing" textLength="102" x="856.5" y="781.1177">&lt;&lt;create&gt;&gt;</text><rect fill="#F8F8F8" filter="url(#fbs2bzn6s4og5)" height="47.4141" style="stroke:#383838;stroke-width:2.25;" width="114" x="1743" y="754.875"/><text fill="#000000" font-family="sans-serif" font-size="21" lengthAdjust="spacing" textLength="93" x="1753.5" y="787.1748">data:Data</text><polygon fill="#383838" points="1777.5,852.3164,1792.5,858.3164,1777.5,864.3164,1783.5,858.3164" style="stroke:#383838;stroke-width:1.5;"/><line style="stroke:#383838;stroke-width:1.5;" x1="846" x2="1786.5" y1="858.3164" y2="858.3164"/><text fill="#000000" font-family="sans-serif" font-size="19.5" lengthAdjust="spacing" textLength="93" x="856.5" y="851.0317">getLevels()</text><polygon fill="#383838" points="862.5,897.8438,847.5,903.8438,862.5,909.8438,856.5,903.8438" style="stroke:#383838;stroke-width:1.5;"/><line style="stroke:#383838;stroke-width:1.5;stroke-dasharray:2.0,2.0;" x1="853.5" x2="1801.5" y1="903.8438" y2="903.8438"/><text fill="#000000" font-family="sans-serif" font-size="19.5" lengthAdjust="spacing" textLength="153" x="871.5" y="896.5591">levels:List&lt;Level&gt;</text><path d="M698.25,926.3438 L807.75,926.3438 L807.75,938.3438 L792.75,953.3438 L698.25,953.3438 L698.25,926.3438 " fill="#EEEEEE" style="stroke:#000000;stroke-width:1.5;"/><rect fill="none" height="118.582" style="stroke:#000000;stroke-width:3.0;" width="902.25" x="698.25" y="926.3438"/><text fill="#000000" font-family="sans-serif" font-size="19.5" font-weight="bold" lengthAdjust="spacing" textLength="42" x="720.75" y="948.0864">loop</text><text fill="#000000" font-family="sans-serif" font-size="16.5" font-weight="bold" lengthAdjust="spacing" textLength="105" x="830.25" y="946.4722">[level:levels]</text><polygon fill="#383838" points="1496.25,981.3984,1511.25,987.3984,1496.25,993.3984,1502.25,987.3984" style="stroke:#383838;stroke-width:1.5;"/><line style="stroke:#383838;stroke-width:1.5;" x1="846" x2="1505.25" y1="987.3984" y2="987.3984"/><text fill="#000000" font-family="sans-serif" font-size="19.5" lengthAdjust="spacing" textLength="133.5" x="856.5" y="980.1138">getLevelName()</text><polygon fill="#383838" points="862.5,1026.9258,847.5,1032.9258,862.5,1038.9258,856.5,1032.9258" style="stroke:#383838;stroke-width:1.5;"/><line style="stroke:#383838;stroke-width:1.5;stroke-dasharray:2.0,2.0;" x1="853.5" x2="1512.75" y1="1032.9258" y2="1032.9258"/><text fill="#000000" font-family="sans-serif" font-size="19.5" lengthAdjust="spacing" textLength="105" x="871.5" y="1025.6411">name:String</text><polygon fill="#383838" points="1126.5,1082.9531,1141.5,1088.9531,1126.5,1094.9531,1132.5,1088.9531" style="stroke:#383838;stroke-width:1.5;"/><line style="stroke:#383838;stroke-width:1.5;" x1="846" x2="1135.5" y1="1088.9531" y2="1088.9531"/><text fill="#000000" font-family="sans-serif" font-size="19.5" lengthAdjust="spacing" textLength="126" x="856.5" y="1081.6685">setLevel (level)</text><polygon fill="#383838" points="862.5,1103.9531,847.5,1109.9531,862.5,1115.9531,856.5,1109.9531" style="stroke:#383838;stroke-width:1.5;"/><line style="stroke:#383838;stroke-width:1.5;stroke-dasharray:2.0,2.0;" x1="853.5" x2="1143" y1="1109.9531" y2="1109.9531"/><polygon fill="#383838" points="1240.5,1149.4805,1255.5,1155.4805,1240.5,1161.4805,1246.5,1155.4805" style="stroke:#383838;stroke-width:1.5;"/><line style="stroke:#383838;stroke-width:1.5;stroke-dasharray:2.0,2.0;" x1="846" x2="1249.5" y1="1155.4805" y2="1155.4805"/><text fill="#000000" font-family="sans-serif" font-size="19.5" lengthAdjust="spacing" textLength="102" x="856.5" y="1148.1958">&lt;&lt;create&gt;&gt;</text><rect fill="#F8F8F8" filter="url(#fbs2bzn6s4og5)" height="47.4141" style="stroke:#383838;stroke-width:2.25;" width="178.5" x="1258.5" y="1121.9531"/><text fill="#000000" font-family="sans-serif" font-size="21" lengthAdjust="spacing" textLength="157.5" x="1269" y="1154.2529">author:GitAuthor</text><polygon fill="#383838" points="1325.25,1219.3945,1340.25,1225.3945,1325.25,1231.3945,1331.25,1225.3945" style="stroke:#383838;stroke-width:1.5;"/><line style="stroke:#383838;stroke-width:1.5;" x1="846" x2="1334.25" y1="1225.3945" y2="1225.3945"/><text fill="#000000" font-family="sans-serif" font-size="19.5" lengthAdjust="spacing" textLength="138" x="856.5" y="1218.1099">setName(name)</text><polygon fill="#383838" points="862.5,1240.3945,847.5,1246.3945,862.5,1252.3945,856.5,1246.3945" style="stroke:#383838;stroke-width:1.5;"/><line style="stroke:#383838;stroke-width:1.5;stroke-dasharray:2.0,2.0;" x1="853.5" x2="1341.75" y1="1246.3945" y2="1246.3945"/><polygon fill="#383838" points="1325.25,1285.9219,1340.25,1291.9219,1325.25,1297.9219,1331.25,1291.9219" style="stroke:#383838;stroke-width:1.5;"/><line style="stroke:#383838;stroke-width:1.5;" x1="846" x2="1334.25" y1="1291.9219" y2="1291.9219"/><text fill="#000000" font-family="sans-serif" font-size="19.5" lengthAdjust="spacing" textLength="124.5" x="856.5" y="1284.6372">setEmail(mail)</text><polygon fill="#383838" points="862.5,1306.9219,847.5,1312.9219,862.5,1318.9219,856.5,1312.9219" style="stroke:#383838;stroke-width:1.5;"/><line style="stroke:#383838;stroke-width:1.5;stroke-dasharray:2.0,2.0;" x1="853.5" x2="1349.25" y1="1312.9219" y2="1312.9219"/><polygon fill="#383838" points="1126.5,1352.4492,1141.5,1358.4492,1126.5,1364.4492,1132.5,1358.4492" style="stroke:#383838;stroke-width:1.5;"/><line style="stroke:#383838;stroke-width:1.5;" x1="846" x2="1135.5" y1="1358.4492" y2="1358.4492"/><text fill="#000000" font-family="sans-serif" font-size="19.5" lengthAdjust="spacing" textLength="150" x="856.5" y="1351.1646">setAuthor(author)</text><polygon fill="#383838" points="862.5,1373.4492,847.5,1379.4492,862.5,1385.4492,856.5,1379.4492" style="stroke:#383838;stroke-width:1.5;"/><line style="stroke:#383838;stroke-width:1.5;stroke-dasharray:2.0,2.0;" x1="853.5" x2="1143" y1="1379.4492" y2="1379.4492"/><polygon fill="#383838" points="1126.5,1418.9766,1141.5,1424.9766,1126.5,1430.9766,1132.5,1424.9766" style="stroke:#383838;stroke-width:1.5;"/><line style="stroke:#383838;stroke-width:1.5;" x1="846" x2="1135.5" y1="1424.9766" y2="1424.9766"/><text fill="#000000" font-family="sans-serif" font-size="19.5" lengthAdjust="spacing" textLength="208.5" x="856.5" y="1417.6919">setUseTooltips(boolean)</text><polygon fill="#383838" points="862.5,1439.9766,847.5,1445.9766,862.5,1451.9766,856.5,1445.9766" style="stroke:#383838;stroke-width:1.5;"/><line style="stroke:#383838;stroke-width:1.5;stroke-dasharray:2.0,2.0;" x1="853.5" x2="1143" y1="1445.9766" y2="1445.9766"/><polygon fill="#383838" points="1126.5,1485.5039,1141.5,1491.5039,1126.5,1497.5039,1132.5,1491.5039" style="stroke:#383838;stroke-width:1.5;"/><line style="stroke:#383838;stroke-width:1.5;" x1="846" x2="1135.5" y1="1491.5039" y2="1491.5039"/><text fill="#000000" font-family="sans-serif" font-size="19.5" lengthAdjust="spacing" textLength="154.5" x="856.5" y="1484.2192">setShowTreeView</text><polygon fill="#383838" points="862.5,1506.5039,847.5,1512.5039,862.5,1518.5039,856.5,1512.5039" style="stroke:#383838;stroke-width:1.5;"/><line style="stroke:#383838;stroke-width:1.5;stroke-dasharray:2.0,2.0;" x1="853.5" x2="1143" y1="1512.5039" y2="1512.5039"/><polygon fill="#383838" points="1126.5,1552.0313,1141.5,1558.0313,1126.5,1564.0313,1132.5,1558.0313" style="stroke:#383838;stroke-width:1.5;"/><line style="stroke:#383838;stroke-width:1.5;" x1="846" x2="1135.5" y1="1558.0313" y2="1558.0313"/><text fill="#000000" font-family="sans-serif" font-size="19.5" lengthAdjust="spacing" textLength="262.5" x="856.5" y="1550.7466">setActiveRepositoryPath(path)</text><polygon fill="#383838" points="862.5,1573.0313,847.5,1579.0313,862.5,1585.0313,856.5,1579.0313" style="stroke:#383838;stroke-width:1.5;"/><line style="stroke:#383838;stroke-width:1.5;stroke-dasharray:2.0,2.0;" x1="853.5" x2="1143" y1="1579.0313" y2="1579.0313"/><line style="stroke:#000000;stroke-width:1.5;stroke-dasharray:2.0,2.0;" x1="352.5" x2="2104.5" y1="1592.5313" y2="1592.5313"/><text fill="#000000" font-family="sans-serif" font-size="16.5" font-weight="bold" lengthAdjust="spacing" textLength="159" x="360" y="1609.6597">[no settings found]</text><polygon fill="#383838" points="709.5,1642.3125,694.5,1648.3125,709.5,1654.3125,703.5,1648.3125" style="stroke:#383838;stroke-width:1.5;"/><line style="stroke:#383838;stroke-width:1.5;stroke-dasharray:2.0,2.0;" x1="700.5" x2="829.5" y1="1648.3125" y2="1648.3125"/><text fill="#000000" font-family="sans-serif" font-size="19.5" lengthAdjust="spacing" textLength="102" x="718.5" y="1641.0278">&lt;&lt;create&gt;&gt;</text><rect fill="#F8F8F8" filter="url(#fbs2bzn6s4og5)" height="47.4141" style="stroke:#383838;stroke-width:2.25;" width="319.5" x="367.5" y="1614.7852"/><text fill="#000000" font-family="sans-serif" font-size="21" lengthAdjust="spacing" textLength="298.5" x="378" y="1647.085">firstuseView:FirstuseDialogView</text><polygon fill="#383838" points="554.25,1712.2266,539.25,1718.2266,554.25,1724.2266,548.25,1718.2266" style="stroke:#383838;stroke-width:1.5;"/><line style="stroke:#383838;stroke-width:1.5;" x1="545.25" x2="829.5" y1="1718.2266" y2="1718.2266"/><text fill="#000000" font-family="sans-serif" font-size="19.5" lengthAdjust="spacing" textLength="81" x="563.25" y="1710.9419">getView()</text><polygon fill="#383838" points="813,1757.7539,828,1763.7539,813,1769.7539,819,1763.7539" style="stroke:#383838;stroke-width:1.5;"/><line style="stroke:#383838;stroke-width:1.5;stroke-dasharray:2.0,2.0;" x1="537.75" x2="822" y1="1763.7539" y2="1763.7539"/><text fill="#000000" font-family="sans-serif" font-size="19.5" lengthAdjust="spacing" textLength="111" x="548.25" y="1756.4692">panel:JPanel</text><polygon fill="#383838" points="1240.5,1803.2813,1255.5,1809.2813,1240.5,1815.2813,1246.5,1809.2813" style="stroke:#383838;stroke-width:1.5;"/><line style="stroke:#383838;stroke-width:1.5;stroke-dasharray:2.0,2.0;" x1="537.75" x2="1249.5" y1="1809.2813" y2="1809.2813"/><text fill="#000000" font-family="sans-serif" font-size="19.5" lengthAdjust="spacing" textLength="102" x="548.25" y="1801.9966">&lt;&lt;create&gt;&gt;</text><rect fill="#F8F8F8" filter="url(#fbs2bzn6s4og5)" height="47.4141" style="stroke:#383838;stroke-width:2.25;" width="178.5" x="1258.5" y="1775.7539"/><text fill="#000000" font-family="sans-serif" font-size="21" lengthAdjust="spacing" textLength="157.5" x="1269" y="1808.0537">author:GitAuthor</text><polygon fill="#383838" points="1332.75,1873.1953,1347.75,1879.1953,1332.75,1885.1953,1338.75,1879.1953" style="stroke:#383838;stroke-width:1.5;"/><line style="stroke:#383838;stroke-width:1.5;" x1="537.75" x2="1341.75" y1="1879.1953" y2="1879.1953"/><text fill="#000000" font-family="sans-serif" font-size="19.5" lengthAdjust="spacing" textLength="195" x="548.25" y="1871.9106">setName(name:String)</text><polygon fill="#383838" points="554.25,1894.1953,539.25,1900.1953,554.25,1906.1953,548.25,1900.1953" style="stroke:#383838;stroke-width:1.5;"/><line style="stroke:#383838;stroke-width:1.5;stroke-dasharray:2.0,2.0;" x1="545.25" x2="1349.25" y1="1900.1953" y2="1900.1953"/><polygon fill="#383838" points="1332.75,1939.7227,1347.75,1945.7227,1332.75,1951.7227,1338.75,1945.7227" style="stroke:#383838;stroke-width:1.5;"/><line style="stroke:#383838;stroke-width:1.5;" x1="537.75" x2="1341.75" y1="1945.7227" y2="1945.7227"/><text fill="#000000" font-family="sans-serif" font-size="19.5" lengthAdjust="spacing" textLength="181.5" x="548.25" y="1938.438">setEmail(mail:String)</text><polygon fill="#383838" points="554.25,1960.7227,539.25,1966.7227,554.25,1972.7227,548.25,1966.7227" style="stroke:#383838;stroke-width:1.5;"/><line style="stroke:#383838;stroke-width:1.5;stroke-dasharray:2.0,2.0;" x1="545.25" x2="1349.25" y1="1966.7227" y2="1966.7227"/><polygon fill="#383838" points="1126.5,2006.25,1141.5,2012.25,1126.5,2018.25,1132.5,2012.25" style="stroke:#383838;stroke-width:1.5;"/><line style="stroke:#383838;stroke-width:1.5;" x1="537.75" x2="1135.5" y1="2012.25" y2="2012.25"/><text fill="#000000" font-family="sans-serif" font-size="19.5" lengthAdjust="spacing" textLength="213" x="548.25" y="2004.9653">setAuthor(author:Author)</text><polygon fill="#383838" points="554.25,2027.25,539.25,2033.25,554.25,2039.25,548.25,2033.25" style="stroke:#383838;stroke-width:1.5;"/><line style="stroke:#383838;stroke-width:1.5;stroke-dasharray:2.0,2.0;" x1="545.25" x2="1143" y1="2033.25" y2="2033.25"/><polygon fill="#383838" points="1126.5,2072.7773,1141.5,2078.7773,1126.5,2084.7773,1132.5,2078.7773" style="stroke:#383838;stroke-width:1.5;"/><line style="stroke:#383838;stroke-width:1.5;" x1="537.75" x2="1135.5" y1="2078.7773" y2="2078.7773"/><text fill="#000000" font-family="sans-serif" font-size="19.5" lengthAdjust="spacing" textLength="319.5" x="548.25" y="2071.4927">setActiveRepositoryPath(path:String)</text><path d="M1045.5,2101.2773 L1137,2101.2773 L1137,2113.2773 L1122,2128.2773 L1045.5,2128.2773 L1045.5,2101.2773 " fill="#EEEEEE" style="stroke:#000000;stroke-width:1.5;"/><rect fill="none" height="303.3047" style="stroke:#000000;stroke-width:3.0;" width="1044" x="1045.5" y="2101.2773"/><text fill="#000000" font-family="sans-serif" font-size="19.5" font-weight="bold" lengthAdjust="spacing" textLength="24" x="1068" y="2123.02">alt</text><text fill="#000000" font-family="sans-serif" font-size="16.5" font-weight="bold" lengthAdjust="spacing" textLength="312" x="1159.5" y="2121.4058">[Ordner ohne Repository ausgew채hlt]</text><polygon fill="#383838" points="1860,2156.332,1875,2162.332,1860,2168.332,1866,2162.332" style="stroke:#383838;stroke-width:1.5;"/><line style="stroke:#383838;stroke-width:1.5;stroke-dasharray:2.0,2.0;" x1="1159.5" x2="1869" y1="2162.332" y2="2162.332"/><text fill="#000000" font-family="sans-serif" font-size="19.5" lengthAdjust="spacing" textLength="102" x="1170" y="2155.0474">&lt;&lt;create&gt;&gt;</text><rect fill="#F8F8F8" filter="url(#fbs2bzn6s4og5)" height="47.4141" style="stroke:#383838;stroke-width:2.25;" width="190.5" x="1878" y="2128.8047"/><text fill="#000000" font-family="sans-serif" font-size="21" lengthAdjust="spacing" textLength="169.5" x="1888.5" y="2161.1045">facade:GitFacade</text><polygon fill="#383838" points="1950.75,2226.2461,1965.75,2232.2461,1950.75,2238.2461,1956.75,2232.2461" style="stroke:#383838;stroke-width:1.5;"/><line style="stroke:#383838;stroke-width:1.5;" x1="1159.5" x2="1959.75" y1="2232.2461" y2="2232.2461"/><text fill="#000000" font-family="sans-serif" font-size="19.5" lengthAdjust="spacing" textLength="270" x="1170" y="2224.9614">initializeRepository(path:String)</text><polygon fill="#383838" points="1176,2271.7734,1161,2277.7734,1176,2283.7734,1170,2277.7734" style="stroke:#383838;stroke-width:1.5;"/><line style="stroke:#383838;stroke-width:1.5;stroke-dasharray:2.0,2.0;" x1="1167" x2="1974.75" y1="2277.7734" y2="2277.7734"/><text fill="#000000" font-family="sans-serif" font-size="19.5" lengthAdjust="spacing" textLength="67.5" x="1185" y="2270.4888">boolean</text><line style="stroke:#000000;stroke-width:1.5;stroke-dasharray:2.0,2.0;" x1="1045.5" x2="2089.5" y1="2291.2734" y2="2291.2734"/><text fill="#000000" font-family="sans-serif" font-size="16.5" font-weight="bold" lengthAdjust="spacing" textLength="297" x="1053" y="2308.4019">[Ordner mit Repository ausgew채hlt]</text><polygon fill="#383838" points="1950.75,2341.0547,1965.75,2347.0547,1950.75,2353.0547,1956.75,2347.0547" style="stroke:#383838;stroke-width:1.5;"/><line style="stroke:#383838;stroke-width:1.5;" x1="1159.5" x2="1959.75" y1="2347.0547" y2="2347.0547"/><text fill="#000000" font-family="sans-serif" font-size="19.5" lengthAdjust="spacing" textLength="267" x="1170" y="2339.77">setRepositoryPath(path:String)</text><polygon fill="#383838" points="1176,2386.582,1161,2392.582,1176,2398.582,1170,2392.582" style="stroke:#383838;stroke-width:1.5;"/><line style="stroke:#383838;stroke-width:1.5;stroke-dasharray:2.0,2.0;" x1="1167" x2="1974.75" y1="2392.582" y2="2392.582"/><text fill="#000000" font-family="sans-serif" font-size="19.5" lengthAdjust="spacing" textLength="67.5" x="1185" y="2385.2974">boolean</text><polygon fill="#383838" points="292.5,2428.582,277.5,2434.582,292.5,2440.582,286.5,2434.582" style="stroke:#383838;stroke-width:1.5;"/><line style="stroke:#383838;stroke-width:1.5;stroke-dasharray:2.0,2.0;" x1="283.5" x2="1143" y1="2434.582" y2="2434.582"/><polygon fill="#383838" points="292.5,2449.582,277.5,2455.582,292.5,2461.582,286.5,2455.582" style="stroke:#383838;stroke-width:1.5;"/><line style="stroke:#383838;stroke-width:1.5;stroke-dasharray:2.0,2.0;" x1="283.5" x2="837" y1="2455.582" y2="2455.582"/><polygon fill="#383838" points="2071.5,2495.1094,2086.5,2501.1094,2071.5,2507.1094,2077.5,2501.1094" style="stroke:#383838;stroke-width:1.5;"/><line style="stroke:#383838;stroke-width:1.5;stroke-dasharray:2.0,2.0;" x1="276" x2="2080.5" y1="2501.1094" y2="2501.1094"/><text fill="#000000" font-family="sans-serif" font-size="19.5" lengthAdjust="spacing" textLength="102" x="286.5" y="2493.8247">&lt;&lt;create&gt;&gt;</text><rect fill="#F8F8F8" filter="url(#fbs2bzn6s4og5)" height="47.4141" style="stroke:#383838;stroke-width:2.25;" width="252" x="2089.5" y="2467.582"/><text fill="#000000" font-family="sans-serif" font-size="21" lengthAdjust="spacing" textLength="231" x="2100" y="2499.8818">maiWindow:MainWindow</text><polygon fill="#383838" points="2193,2565.0234,2208,2571.0234,2193,2577.0234,2199,2571.0234" style="stroke:#383838;stroke-width:1.5;"/><line style="stroke:#383838;stroke-width:1.5;" x1="276" x2="2202" y1="2571.0234" y2="2571.0234"/><text fill="#000000" font-family="sans-serif" font-size="19.5" lengthAdjust="spacing" textLength="81" x="286.5" y="2563.7388">getView()</text><polygon fill="#383838" points="285,2610.5508,270,2616.5508,285,2622.5508,279,2616.5508" style="stroke:#383838;stroke-width:1.5;"/><line style="stroke:#383838;stroke-width:1.5;stroke-dasharray:2.0,2.0;" x1="276" x2="2217" y1="2616.5508" y2="2616.5508"/><text fill="#000000" font-family="sans-serif" font-size="19.5" lengthAdjust="spacing" textLength="54" x="294" y="2609.2661">jPanel</text><!--MD5=[f4757868e6f9852435dc48c0ea0ef074]
@startuml
skinparam monochrome true
hide footbox

actor user
participant "mainStart:Main" as main
participant "firstuseView:FirstuseDialogView" as firstuse
participant "persistency:Persistency" as persistency
participant "settings:Settings" as settings
participant "author:GitAuthor" as author
participant "level:Level" as level
participant "settings.txt" as settingstext
participant "data:Data" as data
participant "facade:GitFacade" as git
participant "maiWindow:MainWindow" as mainWindow

create main
user -> main : start program
activate main
create persistency
main - -> persistency : <<create>>

main -> persistency : load()
activate persistency
persistency -> settingstext : read file
settingstext -> persistency : File handle

create settings
persistency - -> settings : <<create>>
persistency -> settings : getInstance()
activate settings
settings -> settings : new Settings()
settings - -> persistency : settings:Settings

alt Einstellungen gefunden

persistency -> persistency : restoreSettings()

create data
persistency - -> data : <<create>>

persistency -> data : getLevels()
activate data
data - -> persistency : levels:List<Level>
deactivate data

loop level:levels
persistency -> level : getLevelName()
activate level
level - -> persistency : name:String
end

persistency -> settings : setLevel (level)
settings - -> persistency
deactivate level

create author
persistency - -> author : <<create>>
persistency -> author : setName(name)
activate author
author - -> persistency
persistency -> author : setEmail(mail)
author - -> persistency
deactivate author

persistency -> settings : setAuthor(author)
settings - -> persistency

persistency -> settings : setUseTooltips(boolean)
settings - -> persistency

persistency -> settings : setShowTreeView
settings - -> persistency

persistency -> settings : setActiveRepositoryPath(path)
settings - -> persistency

else no settings found
create firstuse
persistency - -> firstuse : <<create>>
persistency -> firstuse : getView()
activate firstuse
firstuse - -> persistency : panel:JPanel
create author
firstuse - -> author : <<create>>
firstuse ->  author : setName(name:String)
author - -> firstuse
firstuse -> author : setEmail(mail:String)
author - -> firstuse
firstuse -> settings : setAuthor(author:Author)
settings - -> firstuse
firstuse -> settings : setActiveRepositoryPath(path:String)

alt Ordner ohne Repository ausgew채hlt
create git
settings - -> git : <<create>>
settings -> git : initializeRepository(path:String)
activate git
git - -> settings : boolean
else Ordner mit Repository ausgew채hlt
deactivate git
settings -> git:  setRepositoryPath(path:String)
activate git
git - -> settings : boolean
deactivate git
end
end
settings - -> main


persistency - -> main
deactivate persistency
deactivate settings
create mainWindow
main - -> mainWindow : <<create>>
main -> mainWindow : getView()
activate mainWindow
mainWindow - -> main : jPanel
deactivate mainWindow
deactivate main


@enduml

PlantUML version 1.2021.00(Sun Jan 10 11:25:05 CET 2021)
(GPL source distribution)
Java Runtime: OpenJDK Runtime Environment
JVM: OpenJDK 64-Bit Server VM
Default Encoding: Cp1252
Language: de
Country: DE
--></g></svg>